<svg width="331" height="661" viewBox="0 0 331 661" fill="none" xmlns="http://www.w3.org/2000/svg">
<path d="M283.894 241.324C284.597 243.687 285.452 244.341 288.016 243.537C294.099 241.625 299.73 238.859 304.958 235.489C311.242 235.741 317.476 235.288 323.66 233.829C326.274 233.226 326.676 232.22 326.073 229.856C324.615 223.82 322.705 217.936 319.437 212.654C307.522 193.24 295.607 173.825 283.391 154.662C283.089 154.159 282.788 153.707 282.486 153.254C282.486 153.807 282.436 154.36 282.436 154.964C281.631 177.698 281.229 200.483 280.827 223.267C280.777 229.353 282.084 235.389 283.894 241.324ZM291.686 186.852C295.406 192.787 299.076 198.722 302.796 204.657C306.818 211.145 310.639 217.734 314.108 225.229C311.393 225.178 309.181 225.229 306.969 225.128C305.36 225.078 303.701 224.977 302.092 224.876C300.735 225.782 299.378 226.687 298.02 227.542C296.16 228.749 294.25 229.806 291.937 231.264C291.133 223.066 291.032 215.471 291.233 207.826C291.334 200.835 291.535 193.843 291.686 186.852Z" fill="#175CD3" fill-opacity="0.5"/>
<path d="M250.211 276.682C254.534 272.005 258.003 266.774 260.868 261.191C266.449 258.274 271.577 254.753 276.252 250.377C278.213 248.516 278.062 247.51 276.353 245.7C272.079 241.173 267.454 237.049 262.025 234.081C242.016 223.217 222.007 212.403 201.847 201.841C201.345 201.589 200.842 201.288 200.339 201.086C200.591 201.539 200.842 202.042 201.144 202.595C211.852 222.714 222.862 242.632 233.872 262.549C236.888 267.981 241.061 272.558 245.585 276.783C247.345 278.493 248.35 278.694 250.211 276.682ZM235.078 244.14C231.76 238.004 228.392 231.868 225.074 225.732C231.257 229.001 237.391 232.321 243.574 235.59C250.311 239.161 256.897 242.984 263.634 247.762C261.271 249.12 259.36 250.226 257.4 251.232C255.942 251.987 254.484 252.741 253.076 253.496C252.372 254.954 251.618 256.413 250.864 257.871C249.859 259.833 248.753 261.744 247.445 264.108C242.569 257.419 238.698 250.83 235.078 244.14Z" fill="#175CD3" fill-opacity="0.5"/>
<path d="M330.9 648.325L330.849 648.275C320.895 636.958 309.533 626.698 307.321 610.502C305.21 594.86 308.628 580.223 314.561 565.939C318.834 555.729 324.515 546.424 330.9 537.622V520.219C328.336 523.388 325.822 526.557 323.409 529.826C308.578 549.844 297.92 571.572 296.512 596.922C295.909 607.585 297.116 617.946 301.339 627.854C301.691 628.659 302.244 629.514 301.741 630.772C290.58 628.458 282.989 621.819 278.565 611.508C275.046 603.36 275.046 594.91 277.207 586.36C278.364 581.632 279.922 577.608 283.743 573.936C290.58 567.347 294.2 558.193 299.177 550.146C309.634 533.095 320.493 516.246 331 499.195V479.479C317.125 502.465 302.646 525.098 288.569 547.933C286.407 551.403 284.598 555.075 282.536 558.596C281.33 560.658 280.174 562.72 278.665 564.531C276.504 567.096 274.442 570.315 270.27 569.057C269.666 568.856 269.063 568.504 268.56 568.001C267.857 568.202 267.203 568.202 266.6 568.052C262.377 567.096 262.125 563.273 261.522 560.004C261.12 557.69 261.12 555.276 261.07 552.912C261.019 548.838 261.221 544.764 261.019 540.69C259.964 513.429 258.456 486.219 257.752 458.958C233.922 472.136 209.69 484.66 185.71 497.586C182.141 499.497 178.722 501.76 175.152 503.772C173.091 504.929 171.03 506.187 168.818 506.991C165.651 508.148 162.283 509.858 159.316 506.74C158.864 506.287 158.562 505.684 158.361 504.979C157.657 504.778 157.104 504.476 156.602 504.024C153.434 501.107 155.144 497.686 156.25 494.518C157.054 492.305 158.261 490.242 159.367 488.13C161.327 484.559 163.539 481.139 165.45 477.517C178.169 453.425 190.486 429.082 203.456 405.09C176.208 404.587 148.96 403.33 121.762 402.525C117.69 402.424 113.618 402.626 109.546 402.626C107.183 402.626 104.77 402.626 102.457 402.223C99.1391 401.62 95.3184 401.418 94.3632 397.244C94.2124 396.64 94.2626 395.936 94.4134 395.282C93.9107 394.779 93.5588 394.226 93.3577 393.572C92.0506 389.448 95.2681 387.335 97.7817 385.173C99.5916 383.664 101.653 382.457 103.664 381.249C107.183 379.137 110.803 377.276 114.221 375.113C137.297 360.577 160.121 345.69 183.347 331.405C160.02 317.322 137.045 302.636 113.869 288.301C110.4 286.138 106.73 284.328 103.211 282.265C101.15 281.058 99.0889 279.901 97.279 278.393C94.7151 276.23 91.4976 274.168 92.7544 269.993C92.9555 269.389 93.3074 268.786 93.8102 268.283C93.6091 267.579 93.609 266.925 93.7598 266.271C94.715 262.046 98.5358 261.795 101.804 261.191C104.116 260.789 106.529 260.789 108.892 260.738C112.964 260.688 117.036 260.889 121.109 260.688C148.357 259.632 175.555 258.123 202.803 257.419C189.631 233.578 177.113 209.335 164.193 185.344C162.283 181.772 160.02 178.352 158.009 174.781C156.853 172.719 155.646 170.657 154.792 168.444C153.635 165.275 151.926 161.905 155.043 158.938C155.496 158.485 156.099 158.183 156.803 157.982C157.004 157.278 157.305 156.725 157.758 156.222C160.674 153.053 164.092 154.763 167.26 155.87C169.472 156.674 171.533 157.882 173.644 158.988C177.214 160.95 180.632 163.163 184.252 165.074C208.333 177.799 232.665 190.122 256.646 203.098C257.148 175.837 258.405 148.577 259.21 121.366C259.31 117.292 259.109 113.218 259.109 109.144C259.109 106.78 259.109 104.366 259.511 102.052C260.115 98.7325 260.316 94.91 264.488 93.9543C265.092 93.8035 265.795 93.8537 266.499 94.0046C267.002 93.5017 267.555 93.1496 268.209 92.9484C272.331 91.6407 274.442 94.8597 276.604 97.3745C278.112 99.1852 279.319 101.247 280.526 103.259C282.637 106.78 284.497 110.401 286.659 113.822C301.188 136.908 316.069 159.742 330.346 182.98C330.548 182.628 330.799 182.275 331 181.923V162.207C330.749 162.609 330.497 163.012 330.246 163.364C319.337 146.011 308.126 128.86 297.267 111.508C292.239 103.511 288.519 94.407 281.632 87.8684C277.761 84.1968 276.202 80.173 274.995 75.4954C272.783 66.945 272.733 58.5454 276.152 50.3471C280.526 39.9859 288.016 33.2964 299.177 30.8822C299.68 32.1396 299.177 32.9947 298.825 33.7994C294.703 43.7582 293.546 54.1193 294.25 64.7822C295.909 90.1821 306.718 111.759 321.75 131.677C324.464 135.248 327.28 138.769 330.145 142.239C330.447 141.887 330.698 141.535 330.95 141.233V123.831C330.648 124.233 330.346 124.635 330.045 125.088C323.157 115.984 317.074 106.378 312.55 95.7147C306.467 81.4807 302.897 66.8947 304.908 51.2524C306.969 35.0065 318.281 24.6454 328.134 13.2783C328.285 13.0772 328.587 12.9766 328.788 12.876C329.039 12.7754 329.291 12.6748 329.542 12.5742C329.793 12.6748 330.045 12.7754 330.296 12.876C330.497 12.9766 330.749 13.0772 330.9 13.2281V0.704152C330.397 0.452668 329.944 0.201187 329.442 0C321.398 3.67166 314.862 9.4055 309.684 17.1009C308.88 18.308 307.975 19.1128 306.165 19.0122C280.475 17.6039 263.986 38.98 263.332 61.865C263.181 67.8503 263.885 73.6848 265.444 79.4186C265.795 80.7263 266.047 81.531 264.338 82.3861C263.986 82.5873 263.634 82.7382 263.282 82.9394C262.88 82.9394 262.477 82.9393 262.125 82.9896C260.215 83.1405 260.014 82.3358 259.662 80.9778C258.104 75.2439 255.791 69.8622 252.574 64.7822C240.407 45.3677 215.321 35.3586 193.905 49.5926C192.396 50.5985 191.19 50.347 189.883 49.7435C181.537 45.7197 172.991 44.1103 164.193 45.0156C159.065 52.208 156.25 60.4567 155.646 69.7113C155.546 71.1699 155.144 72.3267 153.535 73.1315C130.61 84.75 126.991 111.508 137.85 131.677C140.665 136.908 144.234 141.636 148.457 145.81C149.413 146.766 150.066 147.319 149.01 148.929C148.809 149.281 148.608 149.583 148.407 149.935C148.055 150.136 147.754 150.337 147.402 150.538C145.793 151.594 145.24 150.991 144.285 150.035C140.062 145.861 135.336 142.34 130.057 139.574C109.797 128.86 83.1019 132.733 71.6898 155.769C70.8854 157.379 69.7292 157.781 68.2713 157.882C59.021 158.535 50.7762 161.453 43.6373 166.633C42.7827 175.435 44.492 183.986 48.5641 192.285C49.2177 193.592 49.4187 194.799 48.4635 196.308C34.387 217.835 44.6427 242.833 64.1488 254.854C69.2264 257.972 74.656 260.286 80.3872 261.795C81.6943 262.147 82.4986 262.298 82.3981 264.209C82.3981 264.611 82.3478 265.014 82.3478 265.366C82.1467 265.718 81.9959 266.07 81.7948 266.422C80.9402 268.132 80.1861 267.881 78.8287 267.528C73.0975 266.02 67.2658 265.315 61.2833 265.567C38.4089 266.422 17.1935 283.12 18.8023 308.772C18.9028 310.582 18.1487 311.488 16.9421 312.293C9.25027 317.523 3.5694 324.112 0 332.21C3.66995 340.258 9.40109 346.796 17.0929 351.977C18.2995 352.781 19.1039 353.687 19.0033 355.497C17.5957 381.199 38.9619 397.696 61.8363 398.35C67.8188 398.501 73.6505 397.797 79.3816 396.238C80.6888 395.886 81.4932 395.634 82.3478 397.344C82.5489 397.696 82.6998 398.049 82.9008 398.401C82.9008 398.803 82.9008 399.205 82.9511 399.557C83.1019 401.469 82.2473 401.67 80.9402 402.022C75.209 403.581 69.8298 405.895 64.7521 409.114C45.3466 421.286 35.3422 446.384 49.5695 467.81C50.575 469.319 50.3236 470.526 49.7204 471.834C45.6985 480.183 44.0898 488.734 44.9947 497.536C52.1837 502.666 60.4286 505.482 69.6789 506.086C71.1368 506.187 72.2931 506.589 73.0975 508.198C84.7106 531.134 111.456 534.755 131.616 523.891C136.844 521.074 141.57 517.503 145.743 513.278C146.698 512.323 147.251 511.669 148.86 512.725C149.211 512.926 149.513 513.128 149.865 513.329C150.066 513.681 150.267 513.983 150.468 514.335C151.524 515.944 150.921 516.497 149.966 517.453C145.793 521.678 142.274 526.406 139.509 531.687C128.8 551.957 132.671 578.664 155.697 590.082C157.305 590.886 157.708 592.043 157.808 593.451C158.462 602.706 161.378 610.955 166.556 618.097C175.354 618.952 183.9 617.242 192.195 613.168C193.502 612.514 194.709 612.313 196.217 613.268C217.734 627.351 242.72 617.091 254.735 597.576C257.852 592.496 260.165 587.064 261.673 581.33C262.025 580.022 262.176 579.217 264.086 579.318C264.488 579.318 264.89 579.368 265.242 579.368C265.594 579.569 265.946 579.72 266.298 579.922C268.007 580.777 267.756 581.531 267.404 582.889C265.896 588.623 265.192 594.457 265.444 600.443C266.298 623.328 282.989 644.553 308.628 642.893C310.438 642.793 311.343 643.547 312.147 644.754C317.024 651.947 323.208 657.379 330.598 661V648.325H330.9ZM169.773 57.0868C169.824 56.8353 169.974 56.6342 170.175 56.433C170.326 56.2318 170.527 56.0306 170.678 55.7791C170.93 55.7288 171.231 55.6785 171.483 55.6282C171.734 55.5779 172.036 55.5276 172.287 55.6282C186.514 60.4567 201.546 63.6757 211.55 76.602C221.203 89.0756 225.526 103.46 227.537 118.801C229.046 130.269 228.643 141.686 227.387 153.003C216.879 148.577 206.825 143.245 197.574 136.304C185.207 126.999 174.851 116.186 168.717 101.599C162.333 86.5104 166.908 71.8741 169.773 57.0868ZM166.807 145.106C161.629 143.849 158.261 141.183 154.892 137.713C148.709 131.425 144.435 124.183 143.329 115.33C141.922 104.215 145.089 94.6082 153.535 86.9631C154.641 87.8181 154.591 88.8241 154.691 89.6791C156.099 100.342 160.272 109.898 166.204 118.751C180.331 139.875 200.49 153.204 223.415 162.911C227.537 164.672 231.76 166.281 235.983 167.84C236.737 163.414 237.391 158.938 237.894 154.461C240.759 129.715 239.1 105.573 227.638 82.8891C222.862 73.383 216.628 64.9834 207.981 58.5454C207.277 58.0425 206.372 57.5898 206.171 56.1815C216.98 52.6104 226.884 54.572 235.883 61.2614C243.022 66.5929 247.194 73.8859 249.658 82.3358C251.015 87.0134 251.669 91.2383 250.211 96.3686C247.596 105.523 249.004 115.23 248.753 124.686C248.2 145.156 247.194 165.627 246.641 186.098C228.543 176.491 210.243 167.287 192.145 157.68C183.85 153.355 176.108 147.319 166.807 145.106ZM54.5969 174.379C54.4963 174.127 54.5466 173.876 54.5969 173.574C54.6472 173.323 54.6974 173.021 54.7477 172.769C54.9488 172.618 55.1499 172.417 55.4013 172.266C55.6024 172.115 55.8537 171.914 56.0548 171.864C70.7849 168.896 85.4145 164.169 100.547 170.355C115.176 176.34 126.086 186.601 135.487 198.924C142.525 208.128 147.904 218.187 152.429 228.649C141.117 230.057 129.756 230.51 118.243 229.102C102.91 227.241 88.4812 223.066 75.9128 213.459C62.892 203.551 59.5237 188.563 54.5969 174.379ZM82.0462 251.635C73.55 249.271 66.2101 245.146 60.8308 238.055C54.0439 229.102 52.0329 219.244 55.5018 208.379C56.8592 208.581 57.3116 209.436 57.8646 210.14C64.4002 218.69 72.8461 224.877 82.3981 229.554C105.172 240.821 129.303 242.229 154.038 239.161C158.512 238.608 162.936 237.904 167.36 237.149C165.802 232.924 164.143 228.75 162.333 224.625C152.429 201.74 138.956 181.722 117.69 167.74C108.792 161.905 99.1894 157.781 88.5314 156.473C87.6768 156.373 86.6714 156.423 85.8167 155.316C93.408 146.816 102.96 143.547 114.07 144.855C122.868 145.911 130.208 150.086 136.543 156.222C140.011 159.592 142.776 162.911 144.033 168.092C146.346 177.346 152.429 185.042 156.903 193.341C166.656 211.347 176.007 229.554 185.76 247.611C165.299 248.365 144.838 249.522 124.376 250.277C114.925 250.629 105.222 249.271 96.0724 251.987C90.9446 253.546 86.7216 252.892 82.0462 251.635ZM51.48 356.755C35.2417 354.693 24.8853 343.376 13.5235 333.518C13.3224 333.367 13.2219 333.065 13.1213 332.864C13.0208 332.612 12.9203 332.361 12.8197 332.109C12.9203 331.858 13.0208 331.606 13.1213 331.355C13.2219 331.104 13.3224 330.852 13.5235 330.651C24.8351 320.742 35.0908 309.325 51.2788 307.112C66.9138 304.949 81.5434 308.42 95.8211 314.355C106.529 318.831 116.182 324.816 125.332 331.607C116.232 338.497 106.63 344.583 95.9719 349.11C81.6942 355.196 67.115 358.767 51.48 356.755ZM50.6756 385.525C40.3193 381.149 33.6329 373.655 31.2198 362.489C32.4766 361.986 33.3312 362.489 34.1356 362.841C44.0897 366.965 54.446 368.072 65.104 367.418C90.4921 365.758 112.059 354.944 131.968 339.905C135.537 337.189 139.056 334.373 142.525 331.506C139.056 328.639 135.537 325.873 131.917 323.157C111.909 308.319 90.1904 297.656 64.8526 296.248C54.1947 295.644 43.8384 296.851 33.9345 301.076C33.1302 301.428 32.2755 301.982 31.0187 301.479C33.3312 290.313 39.9673 282.718 50.2734 278.292C58.4177 274.771 66.8636 274.771 75.4101 276.934C80.1358 278.091 84.1577 279.65 87.8276 283.473C94.4134 290.313 103.563 293.934 111.607 298.914C129.052 309.627 146.296 320.742 163.74 331.456C146.396 342.37 129.253 353.586 111.909 364.45C103.915 369.48 94.8156 373.202 88.2801 380.093C84.6101 383.965 80.5883 385.525 75.9128 386.732C67.3161 388.895 58.8701 388.995 50.6756 385.525ZM57.4122 491.953C57.1608 491.902 56.9597 491.751 56.7586 491.55C56.5575 491.399 56.3565 491.198 56.1051 491.047C56.0548 490.796 56.0046 490.494 55.9543 490.242C55.904 489.991 55.8538 489.689 55.9543 489.438C60.7805 475.204 63.998 460.165 76.9183 450.156C89.3861 440.499 103.764 436.173 119.098 434.162C130.56 432.653 141.972 433.055 153.284 434.312C148.86 444.824 143.531 454.884 136.593 464.138C127.292 476.511 116.483 486.923 101.904 493.009C86.8724 499.346 72.1926 494.769 57.4122 491.953ZM115.629 518.358C104.518 519.767 94.9162 516.598 87.2746 508.148C88.1293 507.042 89.1347 507.092 89.9893 506.991C100.647 505.583 110.199 501.408 119.047 495.473C140.162 481.34 153.485 461.171 163.187 438.236C164.947 434.111 166.556 429.886 168.114 425.661C163.69 424.907 159.216 424.253 154.741 423.75C130.007 420.883 105.876 422.543 83.2025 434.011C73.7008 438.789 65.3052 445.076 58.8702 453.677C58.3674 454.381 57.915 455.286 56.5073 455.487C52.9379 444.674 54.8985 434.765 61.5849 425.762C66.9139 418.62 74.2035 414.445 82.6495 411.981C87.3249 410.623 91.5478 409.969 96.6757 411.427C105.825 414.043 115.528 412.635 124.98 412.886C145.441 413.439 165.902 414.445 186.363 414.999C176.761 433.105 167.561 451.413 157.959 469.52C153.535 477.869 147.502 485.615 145.29 494.87C144.033 500.05 141.369 503.42 137.9 506.79C131.716 512.977 124.477 517.252 115.629 518.358ZM173.896 607.132C173.644 607.082 173.343 607.032 173.091 606.981C172.941 606.78 172.739 606.579 172.589 606.327C172.438 606.126 172.237 605.875 172.186 605.674C169.22 590.937 164.495 576.3 170.678 561.161C176.661 546.525 186.916 535.61 199.233 526.205C208.434 519.163 218.488 513.781 228.945 509.255C230.353 520.571 230.805 531.938 229.398 543.456C227.537 558.797 223.365 573.232 213.762 585.806C203.859 598.833 188.877 602.153 174.65 607.082C174.398 607.233 174.147 607.182 173.896 607.132ZM251.87 579.72C249.507 588.221 245.384 595.564 238.296 600.946C229.347 607.736 219.494 609.748 208.635 606.277C208.836 604.919 209.69 604.466 210.394 603.913C218.941 597.375 225.124 588.925 229.8 579.368C241.061 556.584 242.469 532.441 239.402 507.695C238.849 503.219 238.145 498.793 237.391 494.367C233.168 495.926 228.995 497.586 224.873 499.396C201.998 509.305 181.99 522.784 168.014 544.06C162.182 552.963 158.06 562.569 156.752 573.232C156.652 574.087 156.702 575.093 155.596 575.948C147.1 568.353 143.832 558.797 145.139 547.681C146.195 538.879 150.368 531.536 156.501 525.199C159.869 521.728 163.187 518.962 168.366 517.705C177.616 515.391 185.308 509.305 193.603 504.829C211.601 495.071 229.8 485.716 247.848 475.958C248.602 496.429 249.758 516.9 250.512 537.371C250.864 546.826 249.507 556.534 252.222 565.688C253.83 570.768 253.177 574.992 251.87 579.72Z" fill="#175CD3" fill-opacity="0.5"/>
<path d="M202.2 459.864C201.949 460.367 201.647 460.87 201.446 461.373C201.899 461.121 202.401 460.87 202.954 460.568C223.064 449.855 242.972 438.84 262.88 427.825C268.31 424.807 272.885 420.632 277.108 416.106C278.767 414.295 278.918 413.289 276.957 411.428C272.281 407.102 267.053 403.632 261.473 400.765C258.557 395.182 255.038 390.052 250.664 385.374C248.804 383.413 247.798 383.564 245.989 385.274C241.464 389.549 237.341 394.176 234.375 399.608C223.567 419.677 212.707 439.695 202.2 459.864ZM251.468 404.236C252.222 405.694 252.976 407.102 253.731 408.561C255.189 409.265 256.646 410.02 258.104 410.774C260.065 411.78 261.975 412.887 264.338 414.194C257.652 419.023 251.116 422.896 244.38 426.517C238.246 429.837 232.113 433.206 225.98 436.526C229.247 430.34 232.565 424.203 235.833 418.017C239.403 411.277 243.223 404.688 247.999 397.948C249.307 400.413 250.463 402.324 251.468 404.236Z" fill="#175CD3" fill-opacity="0.5"/>
<path d="M330.899 401.67V391.309C325.621 390.957 320.342 390.906 315.013 391.057C310.388 388.241 305.662 385.625 300.836 383.312C296.362 380.294 291.736 377.578 286.96 375.013C284.346 370.285 281.581 365.657 278.514 361.231C276.152 356.403 273.537 351.725 270.672 347.098C270.772 341.666 270.672 336.284 270.27 330.953C270.622 325.621 270.672 320.189 270.521 314.807C273.336 310.18 275.951 305.452 278.263 300.624C281.28 296.147 283.994 291.52 286.558 286.742C291.284 284.126 295.909 281.36 300.333 278.292C305.159 275.928 309.835 273.262 314.46 270.446C319.89 270.546 325.269 270.446 330.598 270.043C330.698 270.043 330.799 270.043 330.849 270.043V259.682C330.749 259.682 330.648 259.682 330.547 259.682C324.263 260.336 317.979 260.487 311.695 260.336C306.366 263.656 300.886 266.724 295.105 269.339C289.977 273.061 284.598 276.33 279.067 279.348C276.101 284.881 272.884 290.313 269.214 295.443C266.65 301.227 263.634 306.76 260.316 312.091C260.517 318.378 260.416 324.666 259.863 330.953C260.517 337.24 260.667 343.527 260.517 349.814C263.835 355.145 266.901 360.628 269.516 366.412C273.236 371.542 276.504 376.924 279.52 382.457C285.05 385.424 290.48 388.643 295.607 392.315C301.389 394.88 306.919 397.898 312.248 401.217C318.532 401.016 324.716 401.117 330.899 401.67Z" fill="#175CD3" fill-opacity="0.5"/>
<path d="M326.978 431.597C327.531 429.183 327.129 428.227 324.515 427.623C318.281 426.215 312.047 425.813 305.813 426.114C300.535 422.745 294.904 420.029 288.771 418.168C286.207 417.413 285.402 418.067 284.698 420.431C282.939 426.416 281.682 432.452 281.833 438.638C282.436 461.372 283.039 484.157 284.045 506.891C284.095 507.495 284.095 508.048 284.145 508.601C284.447 508.148 284.749 507.645 285.05 507.193C297.116 487.879 308.83 468.364 320.594 448.849C323.711 443.567 325.571 437.683 326.978 431.597ZM292.943 474.902C292.692 467.911 292.491 460.92 292.239 453.929C291.988 446.334 291.988 438.689 292.742 430.49C295.105 431.899 297.015 432.955 298.875 434.112C300.283 434.967 301.641 435.872 302.998 436.777C304.607 436.677 306.266 436.576 307.874 436.526C310.087 436.425 312.299 436.425 315.013 436.375C311.645 443.869 307.874 450.508 303.903 457.047C300.233 462.982 296.613 468.917 292.943 474.902Z" fill="#175CD3" fill-opacity="0.5"/>
<path d="M234.023 324.313C235.43 318.076 235.833 311.84 235.531 305.603C238.899 300.322 241.614 294.688 243.474 288.552C244.228 285.987 243.575 285.132 241.212 284.478C235.279 282.718 229.196 281.46 223.013 281.611C200.289 282.215 177.515 282.818 154.792 283.824C154.188 283.824 153.635 283.875 153.082 283.875C153.535 284.176 153.987 284.478 154.54 284.78C173.845 296.851 193.351 308.57 212.858 320.34C218.186 323.508 224.069 325.42 230.101 326.828C232.464 327.331 233.419 326.929 234.023 324.313ZM204.663 303.692C198.68 300.02 192.748 296.399 186.766 292.727C193.754 292.475 200.742 292.274 207.73 292.023C215.321 291.771 222.962 291.771 231.157 292.526C229.749 294.89 228.694 296.801 227.537 298.662C226.683 300.07 225.778 301.428 224.873 302.786C224.973 304.396 225.074 306.055 225.124 307.665C225.225 309.878 225.225 312.091 225.275 314.807C217.784 311.387 211.148 307.665 204.663 303.692Z" fill="#175CD3" fill-opacity="0.5"/>
<path d="M243.826 373.604C241.915 367.518 239.15 361.885 235.782 356.654C236.033 350.367 235.581 344.13 234.123 337.944C233.52 335.328 232.514 334.926 230.152 335.53C224.119 336.988 218.237 338.899 212.958 342.169C193.552 354.089 174.147 366.009 154.993 378.232C154.49 378.533 154.038 378.835 153.585 379.137C154.138 379.137 154.691 379.187 155.294 379.187C178.018 379.992 200.792 380.394 223.566 380.797C229.749 380.897 235.832 379.59 241.765 377.779C243.926 377.024 244.58 376.22 243.826 373.604ZM208.081 370.436C201.093 370.234 194.105 370.083 187.117 369.882C193.05 366.16 198.982 362.489 204.914 358.767C211.4 354.743 217.985 350.92 225.476 347.45C225.426 350.166 225.476 352.379 225.376 354.592C225.325 356.202 225.225 357.861 225.124 359.471C226.029 360.829 226.934 362.187 227.789 363.545C228.995 365.406 230.051 367.317 231.509 369.631C223.314 370.586 215.673 370.637 208.081 370.436Z" fill="#175CD3" fill-opacity="0.5"/>
<path d="M330.899 368.223V352.48C329.19 351.776 327.43 351.071 325.721 350.367C323.861 350.166 321.951 349.915 320.091 349.663C318.934 348.154 317.728 346.696 316.622 345.187C315.114 344.08 313.605 342.923 312.097 341.716C311.795 339.855 311.544 337.944 311.343 336.083C310.589 334.323 309.835 332.612 309.131 330.852C309.835 329.092 310.539 327.331 311.293 325.571C311.494 323.71 311.745 321.799 311.997 319.938C313.505 318.731 314.963 317.574 316.471 316.467C317.577 314.958 318.733 313.449 319.94 311.94C321.8 311.639 323.71 311.387 325.57 311.186C327.33 310.432 329.039 309.677 330.799 308.973C330.849 308.973 330.849 309.023 330.899 309.023V293.28C330.849 293.28 330.799 293.28 330.749 293.28C327.38 293.381 323.962 293.28 320.644 293.029C317.879 294.94 315.013 296.751 312.047 298.36C309.181 300.121 306.165 301.73 303.148 303.239C301.691 306.307 300.132 309.275 298.373 312.192C296.764 315.159 295.004 318.077 293.094 320.843C293.395 324.213 293.496 327.583 293.446 330.953C293.546 334.323 293.446 337.743 293.194 341.113C295.105 343.879 296.915 346.746 298.523 349.713C300.283 352.58 301.892 355.598 303.4 358.616C306.467 360.075 309.433 361.634 312.349 363.394C315.315 365.004 318.231 366.764 320.996 368.675C324.263 368.273 327.581 368.172 330.899 368.223Z" fill="#175CD3" fill-opacity="0.5"/>
</svg>
