<svg width="175" height="172" viewBox="0 0 175 172" fill="none" xmlns="http://www.w3.org/2000/svg">
<path d="M132.443 13.2778C132.355 11.027 131.915 8.85168 131.236 6.73919C131.902 4.61413 132.305 2.45134 132.38 0.187961C132.405 -0.767689 132.116 -0.981459 131.236 -1.00661C129.035 -1.06948 126.847 -0.943725 124.747 -0.327582C117.027 1.96095 109.319 4.26205 101.636 6.66375C101.447 6.72662 101.246 6.77691 101.07 6.85235C101.246 6.90265 101.435 6.96553 101.648 7.0284C109.356 9.37981 117.09 11.6054 124.823 13.8311C126.935 14.4347 129.123 14.5353 131.311 14.4598C132.179 14.4472 132.481 14.2461 132.443 13.2778ZM120.522 8.92713C118.159 8.22297 115.782 7.53136 113.418 6.8272C115.782 6.09789 118.146 5.39374 120.51 4.66443C123.088 3.87225 125.691 3.18065 128.57 2.69025C128.319 3.62075 128.117 4.37521 127.878 5.1171C127.702 5.67037 127.526 6.22365 127.363 6.76434C127.552 7.30504 127.728 7.85831 127.904 8.41158C128.143 9.15346 128.344 9.90792 128.608 10.8258C125.716 10.3732 123.1 9.69417 120.522 8.92713Z" fill="#E4E7EC"/>
<path d="M245.537 86.0077L245.511 86.0078C240.192 85.6683 234.786 85.9449 230.183 82.4492C225.745 79.0667 222.94 74.5525 220.853 69.4976C219.369 65.8762 218.464 62.1291 217.86 58.3316L213.51 53.9809C213.661 55.4144 213.824 56.8353 214.038 58.2562C215.333 66.9702 218.099 75.0681 224.085 81.7576C226.6 84.5743 229.492 86.8628 233.025 88.2837C233.314 88.3969 233.666 88.4723 233.855 88.9124C230.485 91.1255 226.927 91.3644 223.242 89.8932C220.325 88.7364 218.213 86.6239 216.616 83.9456C215.723 82.4744 215.107 81.0786 215.144 79.205C215.207 75.8477 213.824 72.6538 213.057 69.3971C211.41 62.5189 209.913 55.5904 208.279 48.6997L203.35 43.7706C205.626 52.9876 207.663 62.2674 209.851 71.497C210.178 72.9053 210.643 74.2759 211.007 75.6717C211.221 76.489 211.448 77.2937 211.523 78.1236C211.624 79.3056 211.913 80.626 210.555 81.3553C210.354 81.4559 210.115 81.5187 209.863 81.5187C209.737 81.7451 209.574 81.9085 209.385 82.0217C208.09 82.839 207.072 81.9463 206.103 81.2798C205.424 80.802 204.821 80.1984 204.217 79.62C203.186 78.614 202.218 77.5452 201.149 76.577C194.07 70.0258 186.89 63.6003 179.899 56.961C177.233 66.2157 174.303 75.4076 171.537 84.6372C171.122 86.0078 170.832 87.4287 170.443 88.8244C170.216 89.6292 170.015 90.4591 169.663 91.2135C169.16 92.2949 168.745 93.5649 167.224 93.5272C166.997 93.5272 166.771 93.4518 166.545 93.326C166.318 93.4518 166.104 93.5147 165.866 93.5272C164.344 93.5901 163.917 92.3075 163.401 91.2387C163.049 90.4842 162.835 89.6669 162.584 88.8621C162.181 87.479 161.88 86.0706 161.452 84.6874C158.61 75.483 155.605 66.3163 152.851 57.0742C145.91 63.7638 138.78 70.2647 131.777 76.8662C130.733 77.8596 129.765 78.9284 128.746 79.9469C128.155 80.5379 127.552 81.1415 126.873 81.6193C125.892 82.2983 124.886 83.2037 123.603 82.3989C123.415 82.2858 123.251 82.0972 123.125 81.896C122.874 81.896 122.648 81.8457 122.434 81.7325C121.076 81.0283 121.352 79.6955 121.44 78.526C121.516 77.6961 121.73 76.8788 121.931 76.074C122.283 74.6657 122.723 73.2951 123.037 71.8994C125.175 62.4937 127.162 53.063 129.4 43.6825C120.045 45.9962 110.627 48.071 101.246 50.2841C99.8377 50.611 98.4671 51.0763 97.0714 51.4409C96.254 51.6547 95.4493 51.881 94.6194 51.9564C93.4374 52.057 92.1171 52.3463 91.3878 50.9882C91.2872 50.7871 91.2243 50.5481 91.2243 50.2966C90.998 50.1709 90.8345 50.0074 90.7088 49.8063C89.8914 48.5111 90.7842 47.4926 91.4506 46.5243C91.9285 45.8453 92.532 45.2418 93.1105 44.6382C94.1164 43.6071 95.1852 42.6389 96.1534 41.5701C102.705 34.4907 109.13 27.3108 115.769 20.3194C106.515 17.6537 97.3229 14.7238 88.0933 11.9575C86.7227 11.5425 85.3018 11.2533 83.9061 10.8635C83.1013 10.6372 82.2839 10.4234 81.5169 10.0839C80.4355 9.58095 79.1655 9.16599 79.2032 7.6445C79.2032 7.41816 79.2787 7.19182 79.4044 6.96548C79.2787 6.73914 79.2158 6.52537 79.2032 6.28646C79.1404 4.76496 80.423 4.33744 81.4918 3.82189C82.2462 3.46981 83.0636 3.25606 83.8683 3.00458C85.2515 2.60219 86.6598 2.30041 88.043 1.87288C97.2474 -0.968919 106.414 -3.9742 115.656 -6.72798C108.967 -13.669 102.466 -20.7987 95.8642 -27.8026C94.8709 -28.8462 93.802 -29.8144 92.7835 -30.833C92.1925 -31.424 91.589 -32.0275 91.1111 -32.7065C90.4321 -33.6873 89.5268 -34.6933 90.3315 -35.9759C90.4447 -36.1645 90.6333 -36.328 90.8471 -36.4663C90.8471 -36.7178 90.8974 -36.9441 91.0106 -37.1579C91.7147 -38.5159 93.0476 -38.2393 94.217 -38.1512C95.0469 -38.0758 95.8642 -37.862 96.669 -37.6608C98.0773 -37.3088 99.4479 -36.8687 100.844 -36.5543C110.249 -34.4167 119.68 -32.4299 129.06 -30.1917C129.023 -30.33 128.998 -30.4809 128.96 -30.6192L124.031 -35.5484C124.068 -35.3849 124.106 -35.2214 124.131 -35.0705C117.065 -36.68 109.973 -38.1638 102.918 -39.7859C99.6617 -40.5278 96.4552 -41.8732 93.0979 -41.7852C91.2117 -41.7349 89.816 -42.3511 88.3448 -43.2187C85.6539 -44.8031 83.5414 -46.8904 82.3468 -49.7951C80.8505 -53.4794 81.0517 -57.0253 83.2396 -60.4204C83.6797 -60.2318 83.7677 -59.8923 83.8809 -59.6031C85.3395 -56.0822 87.6406 -53.2027 90.4824 -50.713C97.2474 -44.7779 105.345 -42.087 114.084 -40.8673C115.656 -40.6535 117.241 -40.4775 118.825 -40.3266C118.812 -40.4901 118.787 -40.641 118.775 -40.7793L114.424 -45.13C114.449 -44.954 114.474 -44.7779 114.512 -44.5893C110.513 -45.1426 106.59 -46.0228 102.793 -47.5568C97.7127 -49.5939 93.1733 -52.3477 89.7657 -56.7613C86.2197 -61.3383 86.4586 -66.7579 86.0814 -72.0642C86.0688 -72.1523 86.1191 -72.2528 86.1443 -72.3283C86.182 -72.4163 86.2197 -72.5043 86.2575 -72.5924C86.3455 -72.6301 86.4335 -72.6678 86.5215 -72.7055C86.597 -72.7307 86.685 -72.7684 86.7604 -72.7684L83.6294 -75.8994C83.4408 -75.8365 83.2648 -75.7862 83.0887 -75.7108C81.9947 -72.781 81.7936 -69.7128 82.4223 -66.4938C82.5229 -65.9908 82.4977 -65.5633 82.0199 -65.1358C75.2423 -59.0624 76.462 -49.5939 82.0199 -43.7091C83.4785 -42.175 85.1132 -40.8924 86.9365 -39.8488C87.3514 -39.6099 87.6155 -39.4715 87.4017 -38.8303C87.364 -38.6919 87.3137 -38.5662 87.276 -38.4279C87.1754 -38.3273 87.0748 -38.2267 86.9993 -38.1261C86.5592 -37.6105 86.3077 -37.7614 85.8802 -38.0129C84.0569 -39.0566 82.1331 -39.8236 80.0583 -40.2889C72.1616 -42.0996 63.3847 -38.3273 61.5866 -29.4121C61.4609 -28.7834 61.0962 -28.5445 60.6184 -28.3684C57.5251 -27.287 54.9851 -25.5518 53.0109 -23.1249C53.5265 -20.0442 54.8845 -17.2778 57.0473 -14.8133C57.3868 -14.4235 57.5754 -14.0337 57.3742 -13.4301C54.545 -4.79152 60.3292 2.80338 68.0875 5.12963C70.0994 5.7332 72.1742 6.02241 74.2741 6.00983C74.7519 6.00984 75.0537 5.98468 75.192 6.65112C75.2298 6.78944 75.2549 6.91518 75.2926 7.05349C75.2549 7.19181 75.2298 7.31755 75.192 7.45587C75.0537 8.12231 74.7645 8.10975 74.2867 8.10975C72.1868 8.12233 70.1246 8.42411 68.1127 9.05283C60.3669 11.442 54.6581 19.0872 57.5628 27.7006C57.764 28.3041 57.5754 28.6939 57.2359 29.0837C55.0857 31.5609 53.7528 34.3524 53.2624 37.4331C55.2491 39.8474 57.8143 41.5575 60.9076 42.6137C61.398 42.7772 61.7501 43.0287 61.8884 43.6448C63.7494 52.5475 72.564 56.2317 80.4481 54.3582C82.4977 53.8678 84.4342 53.0881 86.2449 52.0319C86.6598 51.793 86.8987 51.6295 87.3514 52.1325C87.452 52.2331 87.54 52.3463 87.6281 52.4343C87.6658 52.5726 87.7161 52.6983 87.7538 52.8367C87.9676 53.4779 87.7161 53.6037 87.2886 53.8552C85.4778 54.9114 83.8432 56.194 82.4097 57.7532C76.9021 63.6883 75.7705 73.1694 82.5857 79.1799C83.0636 79.6074 83.1013 80.0224 83.0007 80.5254C82.3845 83.757 82.6109 86.8251 83.7426 89.7423C86.6724 90.8363 89.7405 91.0375 92.9596 90.4088C93.4625 90.3082 93.8901 90.3333 94.3176 90.8112C100.391 97.5887 109.859 96.369 115.744 90.8111C117.278 89.3525 118.561 87.7179 119.605 85.8946C119.843 85.4796 119.982 85.2156 120.623 85.4293C120.761 85.4671 120.887 85.5174 121.025 85.5551C121.126 85.6557 121.227 85.7563 121.327 85.8317C121.843 86.2718 121.679 86.5359 121.44 86.9508C120.397 88.7741 119.63 90.698 119.164 92.7728C117.354 100.669 121.126 109.446 130.041 111.244C130.67 111.37 130.909 111.735 131.085 112.213C132.166 115.306 133.902 117.846 136.328 119.82C139.409 119.305 142.176 117.947 144.64 115.784C145.03 115.444 145.42 115.256 146.023 115.457C154.662 118.286 162.257 112.502 164.583 104.744C165.187 102.732 165.476 100.657 165.463 98.5569C165.463 98.0791 165.438 97.7773 166.104 97.639C166.243 97.6013 166.369 97.5762 166.507 97.5384C166.645 97.5762 166.771 97.6013 166.909 97.639C167.576 97.7773 167.563 98.0665 167.563 98.5444C167.576 100.644 167.877 102.706 168.506 104.718C170.895 112.464 178.541 118.173 187.154 115.268C187.757 115.067 188.147 115.256 188.525 115.583C191.002 117.733 193.793 119.066 196.874 119.556C199.288 117.569 200.998 115.004 202.055 111.911C202.218 111.42 202.469 111.068 203.086 110.93C211.988 109.069 215.673 100.254 213.799 92.3704C213.309 90.3208 212.529 88.3843 211.473 86.5736C211.234 86.1586 211.07 85.9197 211.573 85.4671C211.674 85.3665 211.787 85.2785 211.875 85.1904C212.013 85.1527 212.139 85.1024 212.277 85.0647C212.919 84.8509 213.044 85.1024 213.296 85.5299C214.352 87.3406 215.635 88.9753 217.194 90.4088C223.129 95.9163 232.61 97.048 238.608 90.2202C239.036 89.7423 239.451 89.7046 239.954 89.8052C242.971 90.3836 245.876 90.195 248.63 89.252L245.461 86.0832L245.537 86.0077ZM57.4245 -21.5028C57.3742 -21.5783 57.3616 -21.6663 57.3616 -21.7669C57.3491 -21.8549 57.349 -21.9555 57.3239 -22.0561C57.3742 -22.1315 57.4371 -22.2196 57.4874 -22.295C57.5377 -22.3704 57.6005 -22.4585 57.6886 -22.4962C62.4542 -24.8476 67.0187 -27.8026 72.7526 -27.0733C78.2853 -26.3691 82.963 -23.8542 87.3011 -20.522C90.5453 -18.0323 93.2991 -15.0773 95.8139 -11.9337C92.0794 -10.4123 88.2316 -9.23027 84.1827 -8.65185C78.7631 -7.88482 73.4693 -7.99797 68.2887 -10.1105C62.9195 -12.2858 60.4046 -17.0892 57.4245 -21.5028ZM78.6877 1.24415C77.0782 2.22494 75.5693 2.401 73.8591 2.37585C70.7407 2.35071 67.8612 1.60882 65.3715 -0.327626C62.2405 -2.75447 60.6309 -5.94835 60.8321 -9.97214C61.3225 -10.035 61.5615 -9.77097 61.8004 -9.58235C64.8182 -7.26867 68.251 -5.92321 71.9479 -5.1939C80.7625 -3.44607 89.137 -5.15618 97.2977 -8.46324C98.7689 -9.05423 100.228 -9.70809 101.674 -10.3745C100.756 -11.6697 99.8 -12.9523 98.8066 -14.1971C93.3368 -21.1004 86.8862 -26.7212 78.3482 -29.5252C74.7771 -30.7072 71.1179 -31.2479 67.3456 -30.6947C67.0439 -30.6444 66.7043 -30.5312 66.302 -30.833C68.1127 -34.4292 71.0802 -36.416 75.0034 -36.9944C78.1218 -37.4471 80.9888 -36.6675 83.7174 -35.1711C85.2264 -34.3412 86.4461 -33.4484 87.364 -31.8012C88.9987 -28.8588 91.7776 -26.784 94.0787 -24.3572C99.0581 -19.1011 103.924 -13.7319 108.904 -8.47581C101.975 -6.35074 95.0972 -4.07479 88.1687 -1.94973C85.0126 -0.956355 81.5672 -0.528836 78.6877 1.24415ZM57.94 36.6283C57.852 36.5906 57.8017 36.5152 57.7389 36.4272C57.6886 36.3517 57.6257 36.2637 57.5754 36.1882C57.588 36.1002 57.588 35.9996 57.6131 35.899C57.6257 35.811 57.6382 35.6978 57.676 35.635C60.6184 31.2088 63.0955 26.3677 68.427 24.1295C73.5825 21.9667 78.8763 21.8032 84.3084 22.5325C88.3699 23.0732 92.2303 24.2426 95.9774 25.7264C93.5003 28.9077 90.7716 31.8627 87.54 34.3901C83.2396 37.76 78.5871 40.3252 73.0418 41.0671C67.3079 41.8467 62.7183 38.942 57.94 36.6283ZM84.1198 49.0769C81.4038 50.611 78.5368 51.4158 75.4184 50.9882C71.4826 50.4475 68.515 48.4859 66.6666 44.9023C67.0564 44.6131 67.3834 44.7136 67.6977 44.7514C71.47 45.2543 75.1292 44.6885 78.6877 43.4688C87.2005 40.5893 93.5883 34.9057 99.0078 27.9521C99.9886 26.6946 100.919 25.412 101.837 24.1169C100.391 23.4504 98.9324 22.8217 97.4486 22.2433C89.2501 18.9991 80.8756 17.3645 72.061 19.1877C68.3767 19.9548 64.9439 21.3254 61.9513 23.6642C61.7123 23.8528 61.4734 24.1169 60.983 24.054C60.7567 20.0302 62.3285 16.8238 65.4343 14.3718C67.8989 12.4353 70.7784 11.6431 73.8969 11.5928C75.607 11.5677 77.1285 11.706 78.738 12.6868C81.6301 14.4221 85.0755 14.8244 88.2694 15.7801C95.2104 17.8423 102.101 20.0554 109.055 22.1301C104.126 27.4365 99.297 32.8435 94.3679 38.1498C92.092 40.6018 89.3256 42.6892 87.7161 45.6567C86.8233 47.3291 85.6036 48.2219 84.1198 49.0769ZM102.755 83.0025C98.1779 86.5485 92.7584 86.3095 87.452 86.6868C87.364 86.6993 87.2634 86.6491 87.1879 86.6239C87.0999 86.5862 87.0119 86.5485 86.9239 86.5107C86.8862 86.4227 86.8484 86.3347 86.8107 86.2467C86.773 86.1587 86.7353 86.0706 86.7353 85.97C87.0873 80.6637 86.7981 75.2441 90.2938 70.6419C93.6637 66.1906 98.1905 63.3991 103.245 61.3118C107.043 59.7526 110.953 58.8346 114.94 58.2436C114.386 62.2423 113.506 66.1655 111.972 69.9629C109.922 75.0555 107.169 79.5948 102.755 83.0025ZM109.746 90.3962C106.062 91.8926 102.516 91.6913 99.121 89.5034C99.3096 89.0633 99.6491 88.9753 99.9383 88.8621C103.459 87.4035 106.326 85.0898 108.828 82.2606C114.763 75.4956 117.454 67.3977 118.674 58.6586C118.888 57.0868 119.064 55.5024 119.215 53.9181C117.63 54.0689 116.059 54.2576 114.474 54.4839C105.76 55.7791 97.6624 58.5454 90.9728 64.5308C88.1562 67.0457 85.8676 69.9378 84.4467 73.4712C84.3336 73.7604 84.2581 74.1124 83.818 74.3011C81.6049 70.9311 81.366 67.3726 82.8372 63.6883C83.9941 60.7711 86.1066 58.6586 88.7849 57.0616C90.2561 56.1689 91.6518 55.5527 93.5254 55.5904C96.8828 55.6533 100.077 54.2701 103.333 53.5031C110.375 51.8181 117.467 50.2841 124.509 48.5991C122.899 55.6659 121.415 62.7578 119.793 69.812C119.051 73.0688 117.706 76.2752 117.794 79.6326C117.844 81.5187 117.228 82.9145 116.36 84.3857C114.751 87.0766 112.664 89.2142 109.746 90.3962ZM138.039 115.319C137.963 115.369 137.875 115.381 137.774 115.381C137.686 115.394 137.586 115.394 137.485 115.419C137.41 115.369 137.322 115.306 137.246 115.256C137.171 115.205 137.083 115.143 137.045 115.054C134.694 110.289 131.739 105.724 132.468 99.9904C133.172 94.4577 135.687 89.7801 139.019 85.4419C141.509 82.1977 144.464 79.444 147.608 76.9291C149.129 80.6637 150.311 84.5114 150.89 88.5604C151.657 93.9799 151.556 99.2863 149.431 104.454C147.256 109.798 142.44 112.326 138.039 115.319ZM159.201 107.359C156.774 110.49 153.58 112.1 149.557 111.898C149.494 111.408 149.758 111.169 149.946 110.93C152.26 107.912 153.606 104.479 154.335 100.783C156.083 91.968 154.373 83.5935 151.066 75.4327C150.475 73.9615 149.821 72.5029 149.154 71.0569C147.859 71.9748 146.577 72.9304 145.332 73.9238C138.428 79.3937 132.808 85.8443 130.004 94.3823C128.822 97.9534 128.293 101.625 128.834 105.385C128.884 105.687 128.998 106.026 128.696 106.428C125.1 104.618 123.113 101.65 122.534 97.727C122.082 94.6086 122.861 91.7417 124.358 89.013C125.188 87.5041 126.08 86.2844 127.728 85.3665C130.67 83.7318 132.745 80.9529 135.172 78.6518C140.428 73.6723 145.797 68.8061 151.053 63.8266C153.178 70.7551 155.454 77.6332 157.579 84.5617C158.56 87.7556 158.987 91.201 160.748 94.0679C161.729 95.6774 161.905 97.1863 161.88 98.8964C161.88 101.99 161.138 104.869 159.201 107.359ZM195.969 114.979C195.893 115.029 195.805 115.092 195.73 115.142C195.642 115.13 195.541 115.13 195.44 115.105C195.352 115.092 195.239 115.08 195.176 115.042C190.75 112.1 185.909 109.622 183.671 104.291C181.508 99.1354 181.345 93.8416 182.074 88.4095C182.615 84.3479 183.784 80.4876 185.268 76.7405C188.449 79.2176 191.404 81.9462 193.931 85.1778C197.301 89.4783 199.867 94.1308 200.608 99.6761C201.388 105.41 198.471 109.987 196.145 114.778C196.119 114.878 196.044 114.929 195.969 114.979ZM208.618 88.6232C210.152 91.3393 210.957 94.2062 210.53 97.3247C209.989 101.26 208.027 104.228 204.444 106.076C204.154 105.687 204.255 105.36 204.293 105.045C204.796 101.273 204.23 97.6139 203.01 94.0553C200.131 85.5425 194.447 79.1547 187.493 73.7352C186.236 72.7544 184.953 71.8239 183.658 70.906C182.992 72.352 182.363 73.8107 181.785 75.2944C178.541 83.4929 176.906 91.8674 178.729 100.682C179.496 104.366 180.867 107.799 183.206 110.792C183.394 111.031 183.658 111.27 183.595 111.76C179.572 111.986 176.365 110.415 173.913 107.309C171.977 104.844 171.185 101.965 171.134 98.8462C171.109 97.136 171.247 95.6145 172.228 94.005C173.963 91.1129 174.366 87.6676 175.321 84.4737C177.384 77.5327 179.597 70.6419 181.672 63.6883C186.978 68.6174 192.385 73.446 197.691 78.3751C200.143 80.6511 202.231 83.4174 205.198 85.027C206.87 85.8946 207.763 87.1143 208.618 88.6232Z" fill="#E4E7EC"/>
<path d="M166.231 71.0822C166.293 71.2708 166.344 71.472 166.419 71.648C166.47 71.472 166.532 71.2834 166.595 71.0696C168.947 63.3616 171.172 55.6283 173.398 47.8951C174.002 45.7826 174.102 43.5947 174.027 41.4068C173.989 40.5391 173.775 40.2499 172.82 40.2751C170.569 40.3631 168.393 40.8032 166.281 41.4822C164.156 40.8158 161.993 40.4134 159.73 40.3379C158.774 40.3128 158.56 40.602 158.535 41.4822C158.472 43.6827 158.598 45.8707 159.214 47.9706C161.528 55.6912 163.816 63.4118 166.231 71.0822ZM164.646 44.8521C165.2 45.0282 165.74 45.1916 166.293 45.3677C166.834 45.1791 167.387 45.003 167.941 44.827C168.683 44.5881 169.437 44.3869 170.355 44.1228C169.89 47.0023 169.223 49.6052 168.444 52.1955C167.74 54.5595 167.048 56.9361 166.344 59.3C165.614 56.9361 164.91 54.5721 164.181 52.2081C163.389 49.6304 162.697 47.0275 162.207 44.148C163.15 44.4372 163.917 44.6258 164.646 44.8521Z" fill="#E4E7EC"/>
<path d="M183.872 24.3431L181.282 21.7528C179.874 22.985 178.541 24.2928 177.246 25.6634C175.385 26.116 173.549 26.6442 171.763 27.2729C169.89 27.6375 168.054 28.1154 166.218 28.6686C164.382 28.1405 162.534 27.6753 160.66 27.3358C158.862 26.7196 157.039 26.2041 155.165 25.764C153.832 24.3808 152.462 23.0605 151.028 21.8282C149.783 20.4073 148.438 19.0367 147.055 17.729C146.602 15.868 146.074 14.0321 145.445 12.2465C145.081 10.373 144.603 8.53713 144.049 6.70128C144.578 4.86542 145.043 3.01699 145.382 1.14341C145.998 -0.654717 146.501 -2.49057 146.954 -4.35158C148.337 -5.68446 149.658 -7.05504 150.89 -8.48851C150.915 -8.51366 150.94 -8.53882 150.953 -8.55139L148.362 -11.1417C148.337 -11.1166 148.312 -11.0914 148.287 -11.0663C146.879 -9.33101 145.345 -7.72149 143.735 -6.18742C143.232 -4.02463 142.629 -1.88699 141.836 0.212924C141.484 2.42601 140.956 4.58879 140.327 6.72643C140.969 8.85149 141.522 11.0143 141.887 13.2148C142.691 15.3021 143.32 17.4398 143.823 19.6026C145.445 21.124 146.992 22.721 148.425 24.4311C150.161 25.8394 151.77 27.3735 153.304 28.983C155.467 29.486 157.605 30.0895 159.704 30.8817C161.918 31.2338 164.08 31.7619 166.218 32.3906C168.343 31.7493 170.506 31.1961 172.706 30.8314C174.794 30.0267 176.931 29.3979 179.094 28.895C180.616 27.2729 182.187 25.7514 183.872 24.3431Z" fill="#E4E7EC"/>
<path d="M140.302 29.2347C139.095 27.3234 137.636 25.6636 136.001 24.1798C135.524 22.0171 134.794 19.9297 133.725 17.9304C133.273 17.1005 132.896 17.0502 132.141 17.4777C130.217 18.5214 128.381 19.7285 126.872 21.3129C121.34 27.1474 115.794 32.9945 110.362 38.9296C110.211 39.0804 110.086 39.2313 109.947 39.3697C110.136 39.3319 110.325 39.2942 110.538 39.2313C118.385 37.4206 126.193 35.4716 134.015 33.5352C136.14 32.9945 138.089 32.0011 139.95 30.8442C140.666 30.379 140.805 30.0395 140.302 29.2347ZM127.803 31.4227C125.389 32.0011 123 32.5795 120.585 33.1579C122.27 31.3472 123.968 29.5491 125.653 27.7384C127.489 25.7768 129.4 23.8655 131.638 22.0045C131.877 22.9476 132.091 23.6895 132.267 24.4439C132.405 25.0098 132.518 25.5756 132.631 26.1414C133.059 26.5187 133.499 26.9085 133.914 27.2983C134.492 27.8264 135.046 28.3797 135.737 29.0461C133.009 30.0646 130.418 30.7939 127.803 31.4227Z" fill="#E4E7EC"/>
<path d="M155.077 39.1057C153.078 38.062 150.978 37.3453 148.828 36.88C147.319 35.2454 145.646 33.7993 143.735 32.6173C142.93 32.1143 142.578 32.2652 142.138 33.0071C140.994 34.8807 140 36.8297 139.498 38.9673C137.624 46.8012 135.75 54.635 134.015 62.4814C133.965 62.6825 133.927 62.8712 133.889 63.0598C134.028 62.9215 134.179 62.7957 134.329 62.6448C140.214 57.1624 146.011 51.5668 151.808 45.9712C153.38 44.4498 154.574 42.6013 155.605 40.6649C155.957 39.9356 155.92 39.5709 155.077 39.1057ZM145.345 47.2538C143.546 48.9514 141.761 50.6615 139.963 52.359C140.516 49.9447 141.082 47.5431 141.635 45.1288C142.251 42.5007 142.943 39.8978 143.949 37.1566C144.615 37.8482 145.181 38.3889 145.709 38.9673C146.099 39.3823 146.489 39.8224 146.866 40.2499C147.432 40.3631 147.998 40.4763 148.551 40.602C149.318 40.7655 150.06 40.9792 151.003 41.193C149.192 43.4815 147.294 45.4054 145.345 47.2538Z" fill="#E4E7EC"/>
<path d="M175.511 15.9812L171.575 12.0455C170.971 12.297 170.355 12.5611 169.751 12.8125C169.236 13.2275 168.695 13.6424 168.167 14.0448C167.501 13.9568 166.834 13.8939 166.18 13.7933C165.527 13.8939 164.86 13.9819 164.181 14.0574C163.64 13.6676 163.1 13.2526 162.584 12.8377C161.955 12.5862 161.339 12.3473 160.723 12.0832C160.459 11.4671 160.195 10.8509 159.944 10.2222C159.529 9.70667 159.114 9.16597 158.711 8.63785C158.787 7.95883 158.862 7.30497 158.963 6.6511C158.862 5.99724 158.774 5.33079 158.699 4.65178C159.088 4.11108 159.503 3.5704 159.918 3.05485C160.17 2.42613 160.409 1.80998 160.673 1.19383C160.685 1.18126 160.698 1.19383 160.711 1.18126L156.775 -2.75452C156.762 -2.74194 156.75 -2.72935 156.737 -2.71678C155.92 -1.84915 155.04 -1.01924 154.147 -0.252207C153.933 0.917206 153.669 2.08661 153.329 3.23087C153.053 4.38771 152.701 5.54456 152.323 6.67625C152.726 7.80794 153.078 8.93962 153.367 10.109C153.707 11.2533 153.996 12.4227 154.21 13.5921C155.128 14.3592 155.995 15.1765 156.825 16.0316C157.693 16.8489 158.523 17.7291 159.302 18.6344C160.472 18.8482 161.641 19.1123 162.785 19.4518C163.942 19.7284 165.099 20.0805 166.231 20.4577C167.362 20.0553 168.494 19.7033 169.663 19.414C170.808 19.0745 171.977 18.7853 173.147 18.5716C173.863 17.6536 174.668 16.7986 175.511 15.9812Z" fill="#E4E7EC"/>
</svg>
