<?xml version="1.0" encoding="UTF-8"?>
<svg version="1.1" xmlns="http://www.w3.org/2000/svg" width="512" height="512">
<path d="M0 0 C21.8860742 17.10922776 27.6245398 37.78113648 32.04296875 64.03515625 C32.4846705 67.84428715 32.53392542 71.54142702 32.5 75.375 C32.49548828 76.05884766 32.49097656 76.74269531 32.48632812 77.44726562 C32.4746956 79.11071604 32.45676694 80.7741205 32.4375 82.4375 C33.12392578 81.74333984 33.12392578 81.74333984 33.82421875 81.03515625 C37.421044 77.47316708 40.63657322 76.0030196 45.4375 74.4375 C46.0975 73.7775 46.7575 73.1175 47.4375 72.4375 C49.50981072 71.74672976 51.58446052 71.06247307 53.66796875 70.40625 C56.71124781 69.34174618 59.57004012 68.03263421 62.5 66.6875 C83.39524127 57.6389128 105.76032954 53.27545549 128.4375 52.4375 C129.36820312 52.39625 130.29890625 52.355 131.2578125 52.3125 C175.11414546 51.31292546 220.18397189 66.63705305 253.4375 95.4375 C254.23027344 96.12070313 255.02304687 96.80390625 255.83984375 97.5078125 C267.25875985 107.57377645 277.39710444 118.18809575 286.4375 130.4375 C287.19675781 131.46359375 287.95601563 132.4896875 288.73828125 133.546875 C305.04444942 156.36971783 335.77359879 203.5274389 333.234375 232.77734375 C332.97140625 233.32519531 332.7084375 233.87304688 332.4375 234.4375 C331.4475 234.7675 330.4575 235.0975 329.4375 235.4375 C328.21880071 237.94197516 328.21880071 237.94197516 327.4375 240.4375 C328.0975 240.4375 328.7575 240.4375 329.4375 240.4375 C332.43943578 243.25461511 333.69386861 245.4633356 333.96875 249.50390625 C333.97929492 251.00260327 333.96836866 252.50158381 333.9375 254 C333.95296875 254.75474609 333.9684375 255.50949219 333.984375 256.28710938 C333.95905245 259.87974681 333.73462422 262.0302132 331.59375 264.96484375 C329.4375 266.4375 329.4375 266.4375 326.4375 266.4375 C326.4375 265.1175 326.4375 263.7975 326.4375 262.4375 C325.81875 262.19 325.2 261.9425 324.5625 261.6875 C322.08681313 260.23121361 321.48624998 259.05937494 320.4375 256.4375 C319.4610093 261.05314014 319.4610093 261.05314014 320.125 265.625 C321.40823968 267.55022623 321.40823968 267.55022623 323.4375 269.125 C327.21438397 273.49202209 327.80205155 279.78695101 327.4375 285.4375 C323.01632285 284.08658476 320.994157 282.2724855 318.4375 278.4375 C318.0649809 277.11457959 317.7235166 275.78177802 317.4375 274.4375 C317.01791016 276.27248047 317.01791016 276.27248047 316.58984375 278.14453125 C310.53994945 303.89463574 300.61636752 328.28524246 284.4375 349.4375 C283.83035156 350.25347656 283.22320312 351.06945312 282.59765625 351.91015625 C253.9825878 389.11579493 212.68538755 414.34054749 166.4375 422.4375 C163.42578125 422.5390625 163.42578125 422.5390625 161.4375 422.4375 C161.128125 424.29375 161.128125 424.29375 160.8125 426.1875 C158.99433174 434.32412536 155.63024771 442.79899508 148.4375 447.4375 C145.08203125 448.59765625 145.08203125 448.59765625 141.25 449.5 C140.55874023 449.66282471 139.86748047 449.82564941 139.15527344 449.9934082 C119.55495373 454.47254167 100.49845177 455.61154723 80.4375 455.4375 C80.7675 456.0975 81.0975 456.7575 81.4375 457.4375 C82.4275 469.3175 83.4175 481.1975 84.4375 493.4375 C9.8575 493.4375 -64.7225 493.4375 -141.5625 493.4375 C-141.5625 483.31368098 -141.5625 483.31368098 -141.11938477 478.95629883 C-140.97407066 477.4935125 -140.97407066 477.4935125 -140.82582092 476.00117493 C-140.71958908 474.97598251 -140.61335724 473.9507901 -140.50390625 472.89453125 C-140.3952977 471.80847092 -140.28668915 470.72241058 -140.17478943 469.60343933 C-139.82904442 466.1518562 -139.47740957 462.7009085 -139.125 459.25 C-137.05449255 439.36823083 -137.05449255 439.36823083 -135.5625 419.4375 C-135.48672729 418.20785522 -135.48672729 418.20785522 -135.40942383 416.95336914 C-135.29581885 414.82206605 -135.232723 412.69620327 -135.1875 410.5625 C-135.15011719 409.90121094 -135.11273438 409.23992187 -135.07421875 408.55859375 C-134.81928427 393.23419883 -143.75227113 376.32996208 -148.86004639 362.181427 C-172.18118568 297.50491323 -172.18118568 297.50491323 -177.5625 271.4375 C-177.77003906 270.47328125 -177.97757813 269.5090625 -178.19140625 268.515625 C-180.05123383 253.08884469 -180.74385674 235.67889944 -171.375 222.5625 C-161.30867194 210.91462571 -149.96746907 207.45224192 -135.0625 205.75 C-122.96240751 204.13878534 -113.06101952 200.58885666 -102.5625 194.4375 C-101.48693848 193.81137817 -101.48693848 193.81137817 -100.38964844 193.17260742 C-96.75974906 190.98976253 -93.72074069 188.98314981 -91.0625 185.625 C-88.73837366 182.77913101 -86.35872068 180.3262895 -83.625 177.875 C-78.04262419 172.445566 -74.94635071 165.34919506 -71.5625 158.4375 C-70.9025 158.4375 -70.2425 158.4375 -69.5625 158.4375 C-69.8925 157.7775 -70.2225 157.1175 -70.5625 156.4375 C-70.85572824 154.18996903 -71.09838285 151.93575578 -71.31640625 149.6796875 C-71.38157944 149.01663605 -71.44675262 148.35358459 -71.51390076 147.67044067 C-71.72131787 145.55146983 -71.92322145 143.43201447 -72.125 141.3125 C-72.26461132 139.87626679 -72.40458084 138.44006834 -72.54492188 137.00390625 C-72.88827284 133.48216492 -73.22668081 129.95996842 -73.5625 126.4375 C-74.66335937 126.63085938 -75.76421875 126.82421875 -76.8984375 127.0234375 C-80.5625 127.4375 -80.5625 127.4375 -83.1875 126.0625 C-90.71126827 117.74675613 -95.0187491 105.82455743 -94.99609375 94.6328125 C-94.5625 92.4375 -94.5625 92.4375 -93.03515625 89.43359375 C-90.7256746 84.27421586 -91.37695871 78.9085933 -91.5625 73.375 C-91.84152832 54.10816404 -87.72999883 36.12542898 -74.5625 21.4375 C-73.98113281 20.715625 -73.39976563 19.99375 -72.80078125 19.25 C-56.14445275 -0.86330234 -24.07359646 -16.78370457 0 0 Z M45.4375 458.4375 C46.4375 460.4375 46.4375 460.4375 46.4375 460.4375 Z " fill="#F1F2F2" transform="translate(178.5625,12.5625)"/>
<path d="M0 0 C3.12553712 1.51134699 5.66211688 3.33335125 8.41796875 5.4453125 C9.20397461 6.04690186 9.20397461 6.04690186 10.00585938 6.66064453 C11.58562271 7.87419 13.15812973 9.09716295 14.73046875 10.3203125 C15.58253906 10.97515625 16.43460937 11.63 17.3125 12.3046875 C24.11820787 17.62611336 30.43715331 23.41248504 36.73046875 29.3203125 C37.36726562 29.89136719 38.0040625 30.46242187 38.66015625 31.05078125 C50.02476113 41.62693268 57.89938714 56.096842 65.73046875 69.3203125 C67.62773252 63.75131363 69.4150366 58.17958347 70.98046875 52.5078125 C71.51414063 50.61095703 71.51414063 50.61095703 72.05859375 48.67578125 C72.88188875 44.84192405 72.88188875 44.84192405 71.73046875 41.3203125 C70.3218917 39.37145931 68.83357035 37.47906946 67.29296875 35.6328125 C66.48988281 34.65957031 65.68679687 33.68632812 64.859375 32.68359375 C62.9551961 30.28049804 62.9551961 30.28049804 60.73046875 29.3203125 C62.02769483 26.42650047 63.22577473 24.29623778 65.73046875 22.3203125 C71.78647593 21.35059078 77.63840188 21.71860666 82.73046875 25.3203125 C85.30335742 28.10760856 87.19122239 30.85700819 88.73046875 34.3203125 C88.73046875 32.0103125 88.73046875 29.7003125 88.73046875 27.3203125 C89.36984375 27.9803125 90.00921875 28.6403125 90.66796875 29.3203125 C91.13847656 29.77535156 91.60898438 30.23039062 92.09375 30.69921875 C93.23780246 31.83234947 94.33686199 33.01191322 95.3984375 34.22265625 C102.13609375 41.22928082 110.28488636 43.13857071 119.375 45.64868164 C127.41677741 47.94168845 135.05009211 51.03458987 142.73046875 54.3203125 C143.5503125 54.6503125 144.37015625 54.9803125 145.21484375 55.3203125 C150.71461296 57.59607907 155.18593485 60.48353388 159.73046875 64.3203125 C160.33890625 64.81015625 160.94734375 65.3 161.57421875 65.8046875 C168.959845 72.34809321 172.12875926 81.59316546 174.48046875 90.9453125 C176.36674419 98.11960797 179.61429905 104.27921862 183.20214844 110.74853516 C187.12335185 117.82724518 188.90260136 123.40804 189.04296875 131.5703125 C189.54462499 143.02642805 193.4890489 149.27836465 201.36865234 157.44970703 C206.71148611 163.10902146 210.47813189 169.56557306 214.44482422 176.22167969 C215.74070447 178.33702087 217.09663609 180.39703548 218.484375 182.453125 C231.47675358 201.7225933 242.18384931 221.87192423 238.0390625 245.703125 C236.14400693 255.12488798 233.53188347 265.61927579 226.48828125 272.515625 C223.20199989 274.66613773 220.36465721 275.48290421 216.54296875 276.3828125 C215.85170898 276.54563721 215.16044922 276.70846191 214.44824219 276.8762207 C194.84792248 281.35535417 175.79142052 282.49435973 155.73046875 282.3203125 C156.06046875 282.9803125 156.39046875 283.6403125 156.73046875 284.3203125 C157.72046875 296.2003125 158.71046875 308.0803125 159.73046875 320.3203125 C85.15046875 320.3203125 10.57046875 320.3203125 -66.26953125 320.3203125 C-66.26953125 310.19649348 -66.26953125 310.19649348 -65.82641602 305.83911133 C-65.68110191 304.376325 -65.68110191 304.376325 -65.53285217 302.88398743 C-65.42662033 301.85879501 -65.32038849 300.8336026 -65.2109375 299.77734375 C-65.10232895 298.69128342 -64.9937204 297.60522308 -64.88182068 296.48625183 C-64.53607567 293.0346687 -64.18444082 289.583721 -63.83203125 286.1328125 C-61.7615238 266.25104333 -61.7615238 266.25104333 -60.26953125 246.3203125 C-60.19375854 245.09066772 -60.19375854 245.09066772 -60.11645508 243.83618164 C-60.0028501 241.70487855 -59.93975425 239.57901577 -59.89453125 237.4453125 C-59.85714844 236.78402344 -59.81976563 236.12273437 -59.78125 235.44140625 C-59.52631552 220.11701133 -68.45930238 203.21277458 -73.56707764 189.0642395 C-96.88821693 124.38772573 -96.88821693 124.38772573 -102.26953125 98.3203125 C-102.47707031 97.35609375 -102.68460937 96.391875 -102.8984375 95.3984375 C-104.75826508 79.97165719 -105.45088799 62.56171194 -96.08203125 49.4453125 C-86.01570319 37.79743821 -74.67450032 34.33505442 -59.76953125 32.6328125 C-47.66943876 31.02159784 -37.76805077 27.47166916 -27.26953125 21.3203125 C-26.55249023 20.90289795 -25.83544922 20.4854834 -25.09667969 20.05541992 C-21.46678031 17.87257503 -18.42777194 15.86596231 -15.76953125 12.5078125 C-4.34859368 -1.3023327 -4.34859368 -1.3023327 0 0 Z M120.73046875 285.3203125 C121.73046875 287.3203125 121.73046875 287.3203125 121.73046875 287.3203125 Z " fill="#415A6B" transform="translate(103.26953125,185.6796875)"/>
<path d="M0 0 C21.8860742 17.10922776 27.6245398 37.78113648 32.04296875 64.03515625 C32.4846705 67.84428715 32.53392542 71.54142702 32.5 75.375 C32.49548828 76.05884766 32.49097656 76.74269531 32.48632812 77.44726562 C32.4746956 79.11071604 32.45676694 80.7741205 32.4375 82.4375 C33.12392578 81.74333984 33.12392578 81.74333984 33.82421875 81.03515625 C37.421044 77.47316708 40.63657322 76.0030196 45.4375 74.4375 C46.0975 73.7775 46.7575 73.1175 47.4375 72.4375 C49.50981072 71.74672976 51.58446052 71.06247307 53.66796875 70.40625 C56.71124781 69.34174618 59.57004012 68.03263421 62.5 66.6875 C83.39524127 57.6389128 105.76032954 53.27545549 128.4375 52.4375 C129.36820313 52.39625 130.29890625 52.355 131.2578125 52.3125 C171.41101038 51.3973274 210.86371009 64.2096114 243.4375 87.4375 C243.7675 88.0975 244.0975 88.7575 244.4375 89.4375 C243.344375 89.210625 242.25125 88.98375 241.125 88.75 C239.908125 88.646875 238.69125 88.54375 237.4375 88.4375 C237.004375 88.911875 236.57125 89.38625 236.125 89.875 C233.56414313 92.24616376 231.1669381 91.95584465 227.75 92.125 C226.57050781 92.19074219 225.39101563 92.25648437 224.17578125 92.32421875 C222.82033203 92.38029297 222.82033203 92.38029297 221.4375 92.4375 C221.1075 93.7575 220.7775 95.0775 220.4375 96.4375 C219.509375 96.581875 218.58125 96.72625 217.625 96.875 C214.43024889 97.35850111 214.43024889 97.35850111 211.4375 98.4375 C211.4375 99.0975 211.4375 99.7575 211.4375 100.4375 C209.7875 100.4375 208.1375 100.4375 206.4375 100.4375 C209.15354715 103.31170123 209.15354715 103.31170123 212.4375 105.4375 C211.6875 107.375 211.6875 107.375 210.4375 109.4375 C208.3125 110.1875 208.3125 110.1875 206.4375 110.4375 C206.7675 108.7875 207.0975 107.1375 207.4375 105.4375 C206.4475 105.1075 205.4575 104.7775 204.4375 104.4375 C202.9897078 101.54191559 202.4375 99.69561062 202.4375 96.4375 C200.4575 96.1075 198.4775 95.7775 196.4375 95.4375 C196.4375 97.7475 196.4375 100.0575 196.4375 102.4375 C197.7575 102.7675 199.0775 103.0975 200.4375 103.4375 C200.4375 104.0975 200.4375 104.7575 200.4375 105.4375 C198.478536 105.12897815 196.52034287 104.8155582 194.5625 104.5 C193.47195313 104.32597656 192.38140625 104.15195313 191.2578125 103.97265625 C188.4375 103.4375 188.4375 103.4375 186.4375 102.4375 C186.4375 103.0975 186.4375 103.7575 186.4375 104.4375 C185.38949219 104.40269531 184.34148437 104.36789063 183.26171875 104.33203125 C181.88282853 104.30389063 180.50392098 104.27659076 179.125 104.25 C178.43470703 104.22486328 177.74441406 104.19972656 177.03320312 104.17382812 C172.9926292 104.0449917 172.9926292 104.0449917 169.59375 105.96875 C169.2121875 106.4534375 168.830625 106.938125 168.4375 107.4375 C166.25 107.125 166.25 107.125 164.4375 106.4375 C164.7675 105.1175 165.0975 103.7975 165.4375 102.4375 C164.4475 102.4375 163.4575 102.4375 162.4375 102.4375 C162.7675 104.4175 163.0975 106.3975 163.4375 108.4375 C161.4575 108.4375 159.4775 108.4375 157.4375 108.4375 C157.4375 109.0975 157.4375 109.7575 157.4375 110.4375 C156.1175 110.7675 154.7975 111.0975 153.4375 111.4375 C154.0975 111.7675 154.7575 112.0975 155.4375 112.4375 C153.7875 112.1075 152.1375 111.7775 150.4375 111.4375 C150.355 110.81875 150.2725 110.2 150.1875 109.5625 C149.52535794 106.90260021 149.52535794 106.90260021 145.4375 105.4375 C149.7275 105.7675 154.0175 106.0975 158.4375 106.4375 C156.10654567 102.9410685 155.287385 102.83703823 151.375 101.8125 C146.51577789 100.51577789 146.51577789 100.51577789 145.4375 99.4375 C143.10932036 99.06989269 140.7756615 98.73508419 138.4375 98.4375 C138.4375 97.7775 138.4375 97.1175 138.4375 96.4375 C134.9725 96.9325 134.9725 96.9325 131.4375 97.4375 C131.4375 96.7775 131.4375 96.1175 131.4375 95.4375 C130.7775 95.4375 130.1175 95.4375 129.4375 95.4375 C129.4375 96.0975 129.4375 96.7575 129.4375 97.4375 C123.6875 98.5625 123.6875 98.5625 121.4375 97.4375 C121.1075 98.4275 120.7775 99.4175 120.4375 100.4375 C119.4475 100.7675 118.4575 101.0975 117.4375 101.4375 C116.05240475 103.06140477 114.72991051 104.73890333 113.4375 106.4375 C109.7525423 111.19767198 106.87830699 113.71709651 101.4375 116.4375 C100.01192644 118.99471737 100.01192644 118.99471737 99.4375 121.4375 C100.0975 121.4375 100.7575 121.4375 101.4375 121.4375 C101.7675 123.0875 102.0975 124.7375 102.4375 126.4375 C104.82314077 125.86165568 107.10432784 125.21522405 109.4375 124.4375 C112.4375 130.9375 112.4375 130.9375 112.4375 135.4375 C114.4175 134.7775 116.3975 134.1175 118.4375 133.4375 C118.7675 131.4575 119.0975 129.4775 119.4375 127.4375 C120.7575 127.1075 122.0775 126.7775 123.4375 126.4375 C122.4475 125.2928125 122.4475 125.2928125 121.4375 124.125 C119.4375 121.4375 119.4375 121.4375 119.4375 118.4375 C121.43080842 117.09418346 123.43134866 115.76155988 125.4375 114.4375 C126.82618516 112.33710669 126.82618516 112.33710669 127.4375 110.4375 C129.0875 110.7675 130.7375 111.0975 132.4375 111.4375 C131.28576645 113.90550047 130.38966435 115.48533565 128.4375 117.4375 C128.62507062 121.26314665 128.62507062 121.26314665 130.4375 124.4375 C133.92630949 124.63132275 137.03919639 124.21425511 140.4375 123.4375 C141.0975 124.4275 141.7575 125.4175 142.4375 126.4375 C138.45553543 127.49154945 135.45554691 127.27848656 131.4375 126.4375 C131.4375 127.0975 131.4375 127.7575 131.4375 128.4375 C132.0975 128.4375 132.7575 128.4375 133.4375 128.4375 C133.4375 129.7575 133.4375 131.0775 133.4375 132.4375 C131.7875 132.4375 130.1375 132.4375 128.4375 132.4375 C128.375625 133.05625 128.31375 133.675 128.25 134.3125 C127.4375 136.4375 127.4375 136.4375 125.3125 137.5625 C123.889375 137.995625 123.889375 137.995625 122.4375 138.4375 C121.303125 138.80875 120.16875 139.18 119 139.5625 C115.64239711 140.38717439 112.87388191 140.60512839 109.4375 140.4375 C108.08310332 137.72870665 108.37248549 135.42816732 108.4375 132.4375 C107.4475 133.0975 106.4575 133.7575 105.4375 134.4375 C105.18734127 138.02107241 105.18734127 138.02107241 105.4375 141.4375 C104.385625 141.829375 103.33375 142.22125 102.25 142.625 C98.50950883 144.22589987 96.09093036 146.31581722 93.4375 149.4375 C93.1075 150.4275 92.7775 151.4175 92.4375 152.4375 C90.7875 152.7675 89.1375 153.0975 87.4375 153.4375 C87.4375 154.4275 87.4375 155.4175 87.4375 156.4375 C85.7875 156.4375 84.1375 156.4375 82.4375 156.4375 C82.7675 157.0975 83.0975 157.7575 83.4375 158.4375 C84.4275 158.7675 85.4175 159.0975 86.4375 159.4375 C88.06401522 162.69053044 87.55203156 165.82975602 87.4375 169.4375 C86.4375 170.4375 86.4375 170.4375 83.49609375 170.53515625 C81.70365234 170.51775391 81.70365234 170.51775391 79.875 170.5 C78.07869141 170.48646484 78.07869141 170.48646484 76.24609375 170.47265625 C75.31925781 170.46105469 74.39242187 170.44945312 73.4375 170.4375 C73.4375 171.675 73.4375 172.9125 73.4375 174.1875 C73.4375 177.9375 73.4375 181.6875 73.4375 185.4375 C74.7575 185.7675 76.0775 186.0975 77.4375 186.4375 C77.4375 187.4275 77.4375 188.4175 77.4375 189.4375 C84.86425453 187.46156418 84.86425453 187.46156418 90.4375 182.4375 C90.705625 181.633125 90.97375 180.82875 91.25 180 C92.78685519 176.68362827 94.82786307 175.53868879 97.87890625 173.6484375 C99.74966923 172.42621464 99.74966923 172.42621464 100.4375 169.4375 C103.7375 169.4375 107.0375 169.4375 110.4375 169.4375 C110.4375 168.7775 110.4375 168.1175 110.4375 167.4375 C111.4275 167.7675 112.4175 168.0975 113.4375 168.4375 C113.52 169.22125 113.6025 170.005 113.6875 170.8125 C114.13587439 173.51988172 114.13587439 173.51988172 116.125 174.4375 C116.888125 174.7675 117.65125 175.0975 118.4375 175.4375 C121.6875 177.6875 121.6875 177.6875 124.4375 180.4375 C124.8125 183.75 124.8125 183.75 124.4375 186.4375 C125.0975 186.4375 125.7575 186.4375 126.4375 186.4375 C127.02526634 183.6928656 127.02526634 183.6928656 126.4375 180.4375 C124.84809748 178.69047078 123.12926795 177.32999714 121.26171875 175.88671875 C118.89921158 174.00986616 117.15401626 171.90928341 115.4375 169.4375 C115.4375 168.7775 115.4375 168.1175 115.4375 167.4375 C117.22265625 166.765625 117.22265625 166.765625 119.4375 166.4375 C121.18359375 167.546875 121.18359375 167.546875 122.875 169.1875 C125.07724927 171.26661275 126.51516323 172.47295495 129.3125 173.75 C131.4375 175.4375 131.4375 175.4375 131.82421875 177.546875 C131.93941791 179.15454329 132.00125964 180.76711806 132.00390625 182.37890625 C132.14699219 183.05824219 132.29007813 183.73757812 132.4375 184.4375 C134.38609463 185.76412122 134.38609463 185.76412122 136.4375 186.4375 C136.4375 187.0975 136.4375 187.7575 136.4375 188.4375 C137.0975 188.7675 137.7575 189.0975 138.4375 189.4375 C138.4375 188.4475 138.4375 187.4575 138.4375 186.4375 C139.0975 186.1075 139.7575 185.7775 140.4375 185.4375 C139.4475 182.9625 139.4475 182.9625 138.4375 180.4375 C141.4075 180.1075 144.3775 179.7775 147.4375 179.4375 C147.4375 178.4475 147.4375 177.4575 147.4375 176.4375 C148.07264826 174.09539079 148.7361716 171.76065031 149.4375 169.4375 C150.0975 169.4375 150.7575 169.4375 151.4375 169.4375 C151.7675 168.1175 152.0975 166.7975 152.4375 165.4375 C154.0875 165.7675 155.7375 166.0975 157.4375 166.4375 C157.7675 167.7575 158.0975 169.0775 158.4375 170.4375 C159.7575 170.4375 161.0775 170.4375 162.4375 170.4375 C162.1075 169.1175 161.7775 167.7975 161.4375 166.4375 C163.7475 166.1075 166.0575 165.7775 168.4375 165.4375 C168.1075 167.4175 167.7775 169.3975 167.4375 171.4375 C167.93121094 171.74042969 168.42492187 172.04335937 168.93359375 172.35546875 C174.2316681 175.82000429 174.2316681 175.82000429 175.375 179.25 C175.395625 179.971875 175.41625 180.69375 175.4375 181.4375 C170.8838172 181.6233646 167.13348052 181.66162932 162.75 180.25 C158.49938096 179.20739533 157.17489801 180.37000323 153.4375 182.4375 C150.0625 182.625 150.0625 182.625 147.4375 182.4375 C147.7675 185.4075 148.0975 188.3775 148.4375 191.4375 C149.200625 191.581875 149.96375 191.72625 150.75 191.875 C153.4375 192.4375 153.4375 192.4375 156.4375 193.4375 C156.4375 192.7775 156.4375 192.1175 156.4375 191.4375 C157.345 191.623125 158.2525 191.80875 159.1875 192 C162.12064324 192.39484621 163.7019657 192.38441572 166.4375 191.4375 C167.0975 193.4175 167.7575 195.3975 168.4375 197.4375 C167.7775 197.4375 167.1175 197.4375 166.4375 197.4375 C166.293125 198.571875 166.14875 199.70625 166 200.875 C165.4375 204.4375 165.4375 204.4375 164.4375 205.4375 C162.43999552 205.4375 160.44194719 205.43394125 158.4453125 205.375 C156.22832569 205.3480259 156.22832569 205.3480259 153.4375 206.4375 C151.28125 205.94921875 151.28125 205.94921875 148.9375 205.125 C147.77734375 204.72861328 147.77734375 204.72861328 146.59375 204.32421875 C144.4375 203.4375 144.4375 203.4375 141.4375 201.4375 C140.1175 201.4375 138.7975 201.4375 137.4375 201.4375 C137.1075 203.0875 136.7775 204.7375 136.4375 206.4375 C132.87969804 205.82759109 129.7546411 204.8591319 126.4375 203.4375 C126.4375 202.7775 126.4375 202.1175 126.4375 201.4375 C123.4675 200.7775 120.4975 200.1175 117.4375 199.4375 C117.4375 198.4475 117.4375 197.4575 117.4375 196.4375 C117.12661632 194.76650023 116.79669668 193.09878463 116.4375 191.4375 C105.02984717 191.65642511 105.02984717 191.65642511 94.4375 195.4375 C91.48085481 196.9158226 88.69520263 196.49782783 85.4375 196.4375 C85.4375 195.7775 85.4375 195.1175 85.4375 194.4375 C84.7775 194.4375 84.1175 194.4375 83.4375 194.4375 C83.4375 195.4275 83.4375 196.4175 83.4375 197.4375 C82.261875 198.241875 82.261875 198.241875 81.0625 199.0625 C77.757911 202.05236624 77.70109341 204.07015378 76.9609375 208.30859375 C76.22920987 211.28465017 74.92419462 212.7043492 72.4375 214.4375 C71.4475 214.4375 70.4575 214.4375 69.4375 214.4375 C69.2828125 215.3965625 69.2828125 215.3965625 69.125 216.375 C68.898125 217.055625 68.67125 217.73625 68.4375 218.4375 C67.4475 218.7675 66.4575 219.0975 65.4375 219.4375 C65.4375 221.7475 65.4375 224.0575 65.4375 226.4375 C63.95776655 226.00192084 62.47875215 225.56389904 61 225.125 C60.17628906 224.88136719 59.35257813 224.63773438 58.50390625 224.38671875 C56.04627122 223.62594765 53.61508694 222.82342149 51.1796875 221.99609375 C48.05860221 220.94598164 44.93354387 220.00440456 41.75390625 219.1484375 C29.43013029 215.74587053 22.27019305 211.88109073 14.4375 201.4375 C14.4375 205.0675 14.4375 208.6975 14.4375 212.4375 C12.74608674 209.90038012 12.00442609 208.31092633 11.125 205.5 C9.71067222 201.59444511 8.0214326 199.67745787 4.4375 197.4375 C-0.19082895 195.89472368 -4.74223762 195.65640639 -9.5625 196.4375 C-12.01278366 198.2294985 -12.96137571 199.78736324 -14.5625 202.4375 C-13.72332031 202.7778125 -13.72332031 202.7778125 -12.8671875 203.125 C-7.89062946 205.95910763 -4.43476657 210.56490493 -1.5625 215.4375 C-1.05774774 219.12219152 -2.34190426 221.97623922 -3.5625 225.4375 C-4.24063056 227.92221277 -4.87607383 230.4160878 -5.51123047 232.91210938 C-6.49389082 236.76328653 -7.53007429 240.59939832 -8.5625 244.4375 C-12.14460177 240.2403738 -14.83768933 235.73377345 -17.625 231 C-28.53111132 212.88613235 -41.95120973 198.50215478 -58.78808594 185.79296875 C-60.60129571 184.40786409 -62.38463808 182.99068404 -64.1640625 181.5625 C-64.74551025 181.10053223 -65.32695801 180.63856445 -65.92602539 180.16259766 C-67.52734006 178.8901059 -69.12511564 177.61316417 -70.72265625 176.3359375 C-73.48733964 174.48774475 -75.2925473 173.78549497 -78.5625 173.4375 C-77.01704854 167.95817211 -74.40706788 163.32320819 -71.5625 158.4375 C-70.9025 158.4375 -70.2425 158.4375 -69.5625 158.4375 C-70.0575 157.4475 -70.0575 157.4475 -70.5625 156.4375 C-70.85572824 154.18996903 -71.09838285 151.93575578 -71.31640625 149.6796875 C-71.41416603 148.68511032 -71.41416603 148.68511032 -71.51390076 147.67044067 C-71.72131787 145.55146983 -71.92322145 143.43201447 -72.125 141.3125 C-72.26461132 139.87626679 -72.40458084 138.44006834 -72.54492188 137.00390625 C-72.88827284 133.48216492 -73.22668081 129.95996842 -73.5625 126.4375 C-74.66335937 126.63085938 -75.76421875 126.82421875 -76.8984375 127.0234375 C-80.5625 127.4375 -80.5625 127.4375 -83.1875 126.0625 C-90.71126827 117.74675613 -95.0187491 105.82455743 -94.99609375 94.6328125 C-94.5625 92.4375 -94.5625 92.4375 -93.03515625 89.43359375 C-90.7256746 84.27421586 -91.37695871 78.9085933 -91.5625 73.375 C-91.84152832 54.10816404 -87.72999883 36.12542898 -74.5625 21.4375 C-73.98113281 20.715625 -73.39976563 19.99375 -72.80078125 19.25 C-56.14445275 -0.86330234 -24.07359646 -16.78370457 0 0 Z " fill="#56C0EA" transform="translate(178.5625,12.5625)"/>
<path d="M0 0 C11.30400754 2.06695179 21.55512626 5.99346139 31.91210938 10.82861328 C33.63174069 11.62239294 35.36989446 12.37571672 37.109375 13.125 C48.50761594 18.28343468 55.70892556 25.77067594 60.5703125 37.29296875 C61.75234313 40.61028052 62.66440344 43.90468905 63.53125 47.31640625 C65.41752544 54.49070172 68.6650803 60.65031237 72.25292969 67.11962891 C76.1741331 74.19833893 77.95338261 79.77913375 78.09375 87.94140625 C78.59540624 99.3975218 82.53983015 105.6494584 90.41943359 113.82080078 C95.76226736 119.48011521 99.52891314 125.93666681 103.49560547 132.59277344 C104.79148572 134.70811462 106.14741734 136.76812923 107.53515625 138.82421875 C120.52753483 158.09368705 131.23463056 178.24301798 127.08984375 202.07421875 C125.19478818 211.49598173 122.58266472 221.99036954 115.5390625 228.88671875 C112.25278114 231.03723148 109.41543846 231.85399796 105.59375 232.75390625 C104.90249023 232.91673096 104.21123047 233.07955566 103.49902344 233.24731445 C83.89870373 237.72644792 64.84220177 238.86545348 44.78125 238.69140625 C45.11125 239.35140625 45.44125 240.01140625 45.78125 240.69140625 C46.77125 252.57140625 47.76125 264.45140625 48.78125 276.69140625 C-25.79875 276.69140625 -100.37875 276.69140625 -177.21875 276.69140625 C-177.21875 266.56758723 -177.21875 266.56758723 -176.77563477 262.21020508 C-176.63032066 260.74741875 -176.63032066 260.74741875 -176.48207092 259.25508118 C-176.37583908 258.22988876 -176.26960724 257.20469635 -176.16015625 256.1484375 C-176.0515477 255.06237717 -175.94293915 253.97631683 -175.83103943 252.85734558 C-175.48529442 249.40576245 -175.13365957 245.95481475 -174.78125 242.50390625 C-172.71074255 222.62213708 -172.71074255 222.62213708 -171.21875 202.69140625 C-171.14297729 201.46176147 -171.14297729 201.46176147 -171.06567383 200.20727539 C-170.95206885 198.0759723 -170.888973 195.95010952 -170.84375 193.81640625 C-170.80636719 193.15511719 -170.76898438 192.49382812 -170.73046875 191.8125 C-170.47553427 176.48810508 -179.40852113 159.58386833 -184.51629639 145.43533325 C-207.83743568 80.75881948 -207.83743568 80.75881948 -213.21875 54.69140625 C-213.42628906 53.7271875 -213.63382813 52.76296875 -213.84765625 51.76953125 C-215.40448986 38.85600615 -216.56416303 22.50092495 -210.21875 10.69140625 C-208.078125 8.3671875 -208.078125 8.3671875 -206.21875 6.69140625 C-206.486875 7.33078125 -206.755 7.97015625 -207.03125 8.62890625 C-220.23286806 42.67518439 -204.67680193 79.84943534 -193.36425781 112.39111328 C-192.59210998 114.61572847 -191.82861157 116.84336231 -191.07324219 119.07373047 C-189.95897631 122.35134687 -188.81262009 125.61593918 -187.65625 128.87890625 C-187.16523804 130.33925293 -187.16523804 130.33925293 -186.66430664 131.82910156 C-184.15208318 138.73120066 -180.67940386 142.85998053 -175.21875 147.69140625 C-173.89810547 149.01978516 -173.89810547 149.01978516 -172.55078125 150.375 C-153.72543995 169.07420836 -131.51985306 183.49496814 -109.21875 197.69140625 C-108.61611328 198.07635254 -108.01347656 198.46129883 -107.39257812 198.85791016 C-95.98614472 206.07244438 -83.77701129 211.53886961 -70.21875 212.19140625 C-68.8019977 212.26263961 -67.38533129 212.33559934 -65.96875 212.41015625 C-65.20618896 212.44439697 -64.44362793 212.4786377 -63.65795898 212.51391602 C-61.21875 212.69140625 -61.21875 212.69140625 -58.70336914 213.10131836 C-48.30046739 214.60294822 -38.70036762 211.70861644 -28.65625 209.25390625 C-25.91552615 208.60103209 -23.17367032 207.95320411 -20.4311676 207.30784607 C-18.73596225 206.90713576 -17.04199409 206.50114557 -15.34947205 206.08924866 C-12.23919725 205.34047461 -9.43056582 204.69140625 -6.21875 204.69140625 C-6.16044213 208.08716687 -6.12505054 211.48279775 -6.09375 214.87890625 C-6.07699219 215.83861328 -6.06023437 216.79832031 -6.04296875 217.78710938 C-6.03652344 218.71845703 -6.03007812 219.64980469 -6.0234375 220.609375 C-6.01296387 221.46297607 -6.00249023 222.31657715 -5.99169922 223.19604492 C-6.21875 225.69140625 -6.21875 225.69140625 -8.21875 230.69140625 C-4.25875 230.69140625 -0.29875 230.69140625 3.78125 230.69140625 C3.75768433 229.43481201 3.75768433 229.43481201 3.73364258 228.15283203 C3.68254993 225.04803748 3.64491766 221.94345694 3.61645508 218.83837891 C3.59392749 216.83221251 3.5558143 214.82624099 3.51757812 212.8203125 C3.50307617 210.93505859 3.50307617 210.93505859 3.48828125 209.01171875 C3.46471558 207.26785889 3.46471558 207.26785889 3.44067383 205.48876953 C3.55306396 204.56563965 3.6654541 203.64250977 3.78125 202.69140625 C6.72111148 200.7314986 8.48357206 200.13717374 11.86352539 199.36279297 C12.89792252 199.12269501 13.93231964 198.88259705 14.99806213 198.63522339 C16.11374069 198.38306061 17.22941925 198.13089783 18.37890625 197.87109375 C19.5241124 197.60757111 20.66931854 197.34404846 21.84922791 197.07254028 C24.2703204 196.51664506 26.69209957 195.96373335 29.11450195 195.41357422 C32.83371607 194.56868564 36.55078513 193.71484493 40.26757812 192.859375 C42.61706735 192.3210899 44.96667289 191.78331215 47.31640625 191.24609375 C48.43410904 190.98988251 49.55181183 190.73367126 50.7033844 190.46969604 C51.73462936 190.2359024 52.76587433 190.00210876 53.82836914 189.76123047 C54.73865372 189.55408417 55.64893829 189.34693787 56.58680725 189.1335144 C58.78125 188.69140625 58.78125 188.69140625 60.78125 188.69140625 C60.2759375 187.70398438 59.770625 186.7165625 59.25 185.69921875 C58.59353987 184.40505449 57.93730133 183.1107778 57.28125 181.81640625 C56.94738281 181.16542969 56.61351562 180.51445312 56.26953125 179.84375 C53.78125 174.91796875 53.78125 174.91796875 53.78125 172.69140625 C54.73 172.50578125 55.67875 172.32015625 56.65625 172.12890625 C60.054736 170.98058707 60.054736 170.98058707 61.15625 167.62890625 C62.67039283 158.08980643 61.17326072 152.02950913 56.96875 143.31640625 C56.51693359 142.33285156 56.06511719 141.34929687 55.59960938 140.3359375 C52.37199551 133.05431448 52.37199551 133.05431448 46.15625 128.50390625 C41.59485732 127.4057932 36.11414419 126.52495916 31.78125 128.69140625 C30.4077865 128.84145598 29.0283974 128.93978631 27.6484375 129.0078125 C26.92253418 129.04592041 26.19663086 129.08402832 25.44873047 129.12329102 C24.52721191 129.16639404 23.60569336 129.20949707 22.65625 129.25390625 C21.0730645 129.33164651 19.48989489 129.4097107 17.90673828 129.48803711 C16.53157552 129.55582682 15.15641276 129.62361654 13.78125 129.69140625 C13.88626831 127.97449585 13.88626831 127.97449585 13.9934082 126.22290039 C14.67830312 114.51811089 14.98265217 102.85279229 14.96875 91.12890625 C14.96847809 90.25476074 14.96820618 89.38061523 14.96792603 88.47998047 C17.31879949 48.07178463 17.31879949 48.07178463 5.32421875 12.125 C3.22133002 10.1711768 1.11461045 8.36663939 -1.21875 6.69140625 C-2.88541667 5.35807292 -4.55208333 4.02473958 -6.21875 2.69140625 C-4.25602674 -0.19495149 -3.55730819 -0.34105261 0 0 Z M9.78125 241.69140625 C10.78125 243.69140625 10.78125 243.69140625 10.78125 243.69140625 Z " fill="#32485B" transform="translate(214.21875,229.30859375)"/>
<path d="M0 0 C1.9375 0.1875 1.9375 0.1875 4 1 C4.28875 1.598125 4.5775 2.19625 4.875 2.8125 C6.59155952 6.15025462 8.69883328 7.28828392 12 9 C14.10821978 9.18251236 14.10821978 9.18251236 16.25 9.0625 C17.4875 9.041875 18.725 9.02125 20 9 C20.99 10.485 20.99 10.485 22 12 C24.11729687 12.58704223 24.11729687 12.58704223 26.5625 12.6875 C27.89087891 12.78417969 27.89087891 12.78417969 29.24609375 12.8828125 C33.17204869 13.04987441 37.0708488 13.06337341 41 13 C41.12375 13.63808594 41.2475 14.27617187 41.375 14.93359375 C41.684375 15.95646484 41.684375 15.95646484 42 17 C43.31647119 17.69937532 44.65022151 18.36729133 46 19 C46.495 20.485 46.495 20.485 47 22 C50.58327753 23.00217064 50.58327753 23.00217064 54 22 C54.16435547 22.81791016 54.16435547 22.81791016 54.33203125 23.65234375 C56.21892325 32.62658621 59.18688493 40.67294383 63 49 C63.34434082 49.76699219 63.68868164 50.53398437 64.04345703 51.32421875 C64.37974121 52.04222656 64.71602539 52.76023437 65.0625 53.5 C65.51302734 54.47453125 65.51302734 54.47453125 65.97265625 55.46875 C67.00208515 57.34048343 67.00208515 57.34048343 70 58 C71.80679587 53.37630977 72.21839082 49.57471347 72.125 44.625 C72.10695313 43.37976563 72.08890625 42.13453125 72.0703125 40.8515625 C72.04710937 39.91054688 72.02390625 38.96953125 72 38 C72.928125 37.9071875 72.928125 37.9071875 73.875 37.8125 C76.2216552 37.1941615 76.2216552 37.1941615 77.07421875 34.765625 C77.53248047 33.39664063 77.53248047 33.39664063 78 32 C78.89413953 30.2274536 79.8328104 28.47673523 80.8125 26.75 C81.29332031 25.87859375 81.77414062 25.0071875 82.26953125 24.109375 C84.41149738 21.49840048 85.74248778 21.45228269 89 21 C89.33 20.34 89.66 19.68 90 19 C93.89410329 20.47707366 95.00849448 22.43188595 97 26 C97.721875 26.804375 98.44375 27.60875 99.1875 28.4375 C101.37710875 31.53315375 101.34515632 33.28956952 101 37 C103.31 36.01 105.62 35.02 108 34 C112.10054969 40.48151402 112.53104373 46.20963837 112.7265625 53.70703125 C112.74424492 57.14063991 112.74424492 57.14063991 115 60 C115.22993377 66.86877741 113.24763854 73.66244519 111.3125 80.1875 C111.04268311 81.1053125 110.77286621 82.023125 110.49487305 82.96875 C104.35392831 103.42068821 94.92553428 122.95083445 82 140 C81.08734375 141.22783203 81.08734375 141.22783203 80.15625 142.48046875 C51.51716801 179.67486972 10.25999707 204.90092739 -36 213 C-39.01171875 213.1015625 -39.01171875 213.1015625 -41 213 C-40.835 212.01 -40.67 211.02 -40.5 210 C-38.58351083 193.50657808 -41.39446755 181.05131587 -48 166 C-47.360625 165.38125 -46.72125 164.7625 -46.0625 164.125 C-43.96116416 162.17402388 -43.96116416 162.17402388 -43 160 C-42.34 160 -41.68 160 -41 160 C-40.87882812 159.30132812 -40.75765625 158.60265625 -40.6328125 157.8828125 C-40.46523438 156.97273437 -40.29765625 156.06265625 -40.125 155.125 C-39.96257812 154.22007812 -39.80015625 153.31515625 -39.6328125 152.3828125 C-39 150 -39 150 -37 148 C-36.01 148 -35.02 148 -34 148 C-34.05800781 147.13117188 -34.11601562 146.26234375 -34.17578125 145.3671875 C-34.54498412 135.93669145 -34.54498412 135.93669145 -32 131.5625 C-29 129 -29 129 -26.88671875 127.7734375 C-24.49098925 126.31812757 -22.77320513 125.18637914 -21 123 C-20.25427879 118.58959171 -20.38613805 114.42360314 -21 110 C-21.495 109.505 -21.495 109.505 -22 109 C-22.07226502 107.14712498 -22.0838122 105.29166122 -22.0625 103.4375 C-22.05347656 102.42558594 -22.04445313 101.41367187 -22.03515625 100.37109375 C-22.02355469 99.58863281 -22.01195312 98.80617188 -22 98 C-22.66 98 -23.32 98 -24 98 C-23.52360016 92.99780165 -21.91853686 89.93877038 -19 86 C-18.39542969 85.11441406 -17.79085938 84.22882813 -17.16796875 83.31640625 C-11.24661661 74.7910178 -11.24661661 74.7910178 -7.6875 72.6875 C-3.68020319 70.17129038 -2.53761031 67.15760939 -1.4140625 62.6484375 C-1.0650697 61.05520948 -0.73560779 59.45752502 -0.4296875 57.85546875 C0 56 0 56 1 55 C1.36760731 52.67182036 1.70241581 50.3381615 2 48 C1.34773438 48.28875 0.69546875 48.5775 0.0234375 48.875 C-4.79241835 50.92067328 -8.6591018 52.56219981 -14 52 C-14.45375 51.05125 -14.9075 50.1025 -15.375 49.125 C-16.80238254 45.99686321 -16.80238254 45.99686321 -19 44 C-19 43.01 -19 42.02 -19 41 C-19.804375 40.690625 -20.60875 40.38125 -21.4375 40.0625 C-24 39 -24 39 -25 38 C-25.04080783 36.00041636 -25.04254356 33.99954746 -25 32 C-25.99 31.67 -26.98 31.34 -28 31 C-28.10957031 30.31292969 -28.21914063 29.62585938 -28.33203125 28.91796875 C-28.49058594 28.01691406 -28.64914062 27.11585938 -28.8125 26.1875 C-28.96332031 25.29417969 -29.11414063 24.40085938 -29.26953125 23.48046875 C-30.07358491 20.75012609 -30.93309549 19.87181403 -33 18 C-35.06783223 13.86433555 -36.4229796 10.65277562 -36 6 C-33.75 6.0625 -33.75 6.0625 -31 7 C-28.52994022 10.0698187 -27 12.99496016 -27 17 C-26.34 17 -25.68 17 -25 17 C-24.75765625 17.66386719 -24.5153125 18.32773438 -24.265625 19.01171875 C-22.19544921 24.56342198 -22.19544921 24.56342198 -19 29.5 C-14.73923223 34.82595971 -12.96020553 41.33675554 -12 48 C-1.14175113 44.14780593 -1.14175113 44.14780593 8.1875 37.8125 C8.785625 37.214375 9.38375 36.61625 10 36 C10.99 36 11.98 36 13 36 C13 35.34 13 34.68 13 34 C13.66 34 14.32 34 15 34 C15.33 32.68 15.66 31.36 16 30 C16.66 30 17.32 30 18 30 C18.185625 29.1028125 18.185625 29.1028125 18.375 28.1875 C19 26 19 26 21 23 C21 21.68 21 20.36 21 19 C18.62387135 17.39092892 18.62387135 17.39092892 16 16 C15.34 15.01 14.68 14.02 14 13 C13.608125 13.639375 13.21625 14.27875 12.8125 14.9375 C10.61527704 17.43778819 9.24208567 17.64950425 6 18 C6 16.02 6 14.04 6 12 C5.01 11.67 4.02 11.34 3 11 C3 10.34 3 9.68 3 9 C2.01 8.67 1.02 8.34 0 8 C-0.38063221 5.6739143 -0.71269945 3.33944736 -1 1 C-0.67 0.67 -0.34 0.34 0 0 Z " fill="#56C0EB" transform="translate(381,222)"/>
<path d="M0 0 C5.54484863 3.69656575 9.03920323 10.59151429 10.44482422 17.04101562 C10.98196269 20.0659883 11.45712367 23.09045087 11.83642578 26.1394043 C12.40701211 30.4321377 13.37260223 34.08058489 15.02783203 38.09204102 C17.18424418 43.92308516 17.53845477 49.01803312 17.42578125 55.1875 C17.42084908 56.72313599 17.42084908 56.72313599 17.41581726 58.28979492 C17.40022303 61.52697918 17.35628782 64.76308856 17.3125 68 C17.30098897 70.16926227 17.29120965 72.33853446 17.28320312 74.5078125 C17.2697749 76.60938545 17.25485079 78.71094947 17.23828125 80.8125 C17.23089432 81.77115967 17.22350739 82.72981934 17.21589661 83.7175293 C17.12612316 90.18487988 16.67224541 96.56766411 16 103 C17.485 103.495 17.485 103.495 19 104 C19.6875 106.0625 19.6875 106.0625 20 108 C20.66 108 21.32 108 22 108 C21.34 109.65 20.68 111.3 20 113 C18.35 113 16.7 113 15 113 C14.505 114.485 14.505 114.485 14 116 C13.37996094 116.11859375 12.75992188 116.2371875 12.12109375 116.359375 C9.75831818 116.82540272 9.75831818 116.82540272 8.47265625 119.328125 C8.00730469 120.29234375 7.54195313 121.2565625 7.0625 122.25 C5.40816191 125.66005623 4.16495805 127.84981793 1.33984375 130.421875 C-1.69195625 133.76242258 -1.53769734 135.55171329 -1.5 140 C-1.76690213 147.80116793 -3.65386611 153.90699763 -7 161 C-7.28617187 161.70640625 -7.57234375 162.4128125 -7.8671875 163.140625 C-9.05249565 165.5563959 -10.42078746 166.79180915 -12.9453125 167.69921875 C-21.48524689 168.78432592 -27.79456442 162.95395002 -34.30322266 158.22607422 C-41.05026673 153.35072813 -48.21290877 149.99026705 -55.8125 146.6875 C-77.82602108 137.07075534 -77.82602108 137.07075534 -81 129 C-81.36130944 126.69309719 -81.63483028 124.37182064 -81.8515625 122.046875 C-81.91532074 121.38665344 -81.97907898 120.72643188 -82.04476929 120.04620361 C-82.24566101 117.9480978 -82.4354791 115.84916039 -82.625 113.75 C-82.7596859 112.32284751 -82.89509463 110.89576304 -83.03125 109.46875 C-83.36254183 105.97991536 -83.68391394 102.49024892 -84 99 C-85.10085937 99.19335938 -86.20171875 99.38671875 -87.3359375 99.5859375 C-91 100 -91 100 -93.625 98.625 C-101.04707818 90.42165043 -105.85358258 78.12902695 -105.33984375 67.01171875 C-104.77796151 63.6856342 -103.53053864 60.99730483 -102 58 C-98.49172055 57.67364842 -96.51435404 57.69891471 -93.4375 59.5 C-90.33906975 62.67787718 -88.19075639 66.15918454 -86 70 C-85.01 69.505 -85.01 69.505 -84 69 C-83.61421366 67.1794601 -83.61421366 67.1794601 -83.54296875 64.984375 C-83.45607788 63.73466919 -83.45607788 63.73466919 -83.36743164 62.4597168 C-83.3080542 61.56551025 -83.24867676 60.67130371 -83.1875 59.75 C-82.35611882 49.59378971 -79.89209531 41.68090149 -75.25 32.5625 C-73.94305055 28.83769408 -73.81737837 26.05067851 -73.6875 22.125 C-73.3309902 15.29310818 -71.71284954 10.97467451 -67 6 C-61.54198772 1.84151446 -56.30190517 1.87500968 -49.6484375 1.97265625 C-47.97526257 1.98531347 -46.30208536 1.99767361 -44.62890625 2.00976562 C-42.00920417 2.03445213 -39.38962254 2.06231225 -36.77001953 2.09594727 C-24.8508569 2.23926611 -11.48896089 -1.90798815 0 0 Z " fill="#FED05C" transform="translate(189,40)"/>
<path d="M0 0 C3.98798452 1.55088287 7.06814128 4.04299788 10.421875 6.6640625 C11.49139404 7.47786377 11.49139404 7.47786377 12.58251953 8.30810547 C15.56688021 10.58698531 18.50061274 12.89411009 21.3671875 15.3203125 C26.61072324 19.75570474 30.87141056 21.25660635 37.671875 22.0390625 C38.868125 22.2453125 40.064375 22.4515625 41.296875 22.6640625 C42.080625 22.7878125 42.864375 22.9115625 43.671875 23.0390625 C42.01963202 26.61892229 39.87192175 29.7747655 37.671875 33.0390625 C38.39890625 33.69390625 39.1259375 34.34875 39.875 35.0234375 C56.20866251 49.80961376 70.33212775 65.03353837 81.671875 84.0390625 C82.29191406 85.0703125 82.91195312 86.1015625 83.55078125 87.1640625 C93.53256337 104.83535945 100.52752026 124.45453484 107.984375 143.2890625 C108.55273071 144.71605469 108.55273071 144.71605469 109.13256836 146.171875 C109.64122437 147.47511719 109.64122437 147.47511719 110.16015625 148.8046875 C110.60161987 149.93052246 110.60161987 149.93052246 111.05200195 151.07910156 C111.671875 153.0390625 111.671875 153.0390625 111.671875 156.0390625 C100.95945005 156.51634876 90.65041259 155.48238916 80.03759766 154.01831055 C71.49480069 152.90540875 63.34730413 152.35596212 55.359375 156.1015625 C51.98565058 157.66853202 49.41011397 158.71597037 45.671875 158.0390625 C44 155.84765625 44 155.84765625 42.671875 153.0390625 C42.29546875 152.24628906 41.9190625 151.45351563 41.53125 150.63671875 C41.16515625 149.80011719 40.7990625 148.96351563 40.421875 148.1015625 C39.0814275 145.05654594 37.71989383 142.12347702 36.07421875 139.23046875 C31.58497902 131.20301274 29.18055193 123.11948104 26.859375 114.2265625 C18.41284323 82.00667972 4.79372879 46.12926622 -24.87890625 28.0546875 C-33.40062643 23.07483743 -39.69115131 19.90155986 -49.640625 19.8515625 C-50.91550781 19.83738281 -52.19039062 19.82320312 -53.50390625 19.80859375 C-57.49387884 20.04905175 -60.55351069 20.8036454 -64.328125 22.0390625 C-58.82123891 15.55603941 -48.47917819 14.97952467 -40.51269531 14.1484375 C-27.19907038 12.74164501 -15.74677003 8.75647322 -4.61328125 1.1953125 C-2.328125 0.0390625 -2.328125 0.0390625 0 0 Z " fill="#344A5E" transform="translate(83.328125,203.9609375)"/>
<path d="M0 0 C22.43069501 17.53497984 29.05770815 40.17384575 32.4375 67.4375 C33.23567082 78.1015856 31.38666742 87.29973699 28.4375 97.4375 C27.7775 97.4375 27.1175 97.4375 26.4375 97.4375 C26.45844727 96.70748779 26.47939453 95.97747559 26.50097656 95.2253418 C26.58506927 91.85870617 26.63645279 88.49229255 26.6875 85.125 C26.72101563 83.97708984 26.75453125 82.82917969 26.7890625 81.64648438 C26.86780691 74.69728995 26.05119216 69.38468651 23.40429688 62.96362305 C21.96753528 59.20953916 21.53947431 55.46885343 21.0625 51.5 C19.94298762 43.66999871 17.98067348 37.06296132 13.4375 30.4375 C10.27997175 28.33248116 9.48940645 28.16429354 5.875 28.1875 C5.08996094 28.18234375 4.30492187 28.1771875 3.49609375 28.171875 C0.92015742 28.39558339 -1.21229286 28.84197419 -3.703125 29.45703125 C-12.72164231 31.34214897 -22.18825799 30.5112534 -31.34838867 30.32104492 C-33.87157424 30.27256346 -36.39448487 30.2428516 -38.91796875 30.21484375 C-40.06352486 30.1822068 -40.06352486 30.1822068 -41.23222351 30.14891052 C-47.75525582 30.08903721 -52.3323599 31.50471191 -57.375 35.875 C-61.15855643 40.3071661 -61.75129167 43.17268664 -61.875 49 C-62.21746351 55.00245136 -63.3990659 59.35717761 -66.2109375 64.64453125 C-70.17190969 72.82977726 -71.16590202 80.60604784 -71.734375 89.59179688 C-71.80140625 90.44708984 -71.8684375 91.30238281 -71.9375 92.18359375 C-71.98648438 92.95372803 -72.03546875 93.7238623 -72.0859375 94.51733398 C-72.5625 96.4375 -72.5625 96.4375 -75.5625 98.4375 C-76.05878906 97.66664062 -76.55507812 96.89578125 -77.06640625 96.1015625 C-81.13061987 89.48662128 -81.13061987 89.48662128 -87.5625 85.75 C-88.5525 85.646875 -89.5425 85.54375 -90.5625 85.4375 C-95.67323905 67.40652587 -90.21224251 46.45420337 -81.5625 30.4375 C-79.46889774 27.17658452 -77.14553437 24.31879324 -74.5625 21.4375 C-73.98113281 20.715625 -73.39976563 19.99375 -72.80078125 19.25 C-56.14445275 -0.86330234 -24.07359646 -16.78370457 0 0 Z " fill="#425A6A" transform="translate(178.5625,12.5625)"/>
<path d="M0 0 C0.66 0 1.32 0 2 0 C2.13277344 0.63808594 2.26554687 1.27617187 2.40234375 1.93359375 C2.66724609 3.17302734 2.66724609 3.17302734 2.9375 4.4375 C3.19853516 5.67306641 3.19853516 5.67306641 3.46484375 6.93359375 C3.80752994 8.97661204 3.80752994 8.97661204 5 10 C5.07226502 11.85287502 5.0838122 13.70833878 5.0625 15.5625 C5.05347656 16.57441406 5.04445313 17.58632813 5.03515625 18.62890625 C5.02355469 19.41136719 5.01195312 20.19382812 5 21 C5.64453125 21.26554687 6.2890625 21.53109375 6.953125 21.8046875 C7.62859375 22.19914062 8.3040625 22.59359375 9 23 C9.75 26.125 9.75 26.125 10 29 C10.66 29 11.32 29 12 29 C12.99 32.465 12.99 32.465 14 36 C13.34 36 12.68 36 12 36 C11.89042969 36.56847656 11.78085937 37.13695312 11.66796875 37.72265625 C9.99554903 45.86720433 7.42032095 51.7238389 2 58 C1.67 58.99 1.34 59.98 1 61 C0.34 61 -0.32 61 -1 61 C-1.309375 61.78375 -1.61875 62.5675 -1.9375 63.375 C-3.76576577 67.89189189 -3.76576577 67.89189189 -6.4375 69.125 C-11.94215859 70.47702141 -17.58195109 70.8060163 -23 69 C-23.495 64.545 -23.495 64.545 -24 60 C-28.01121121 60.76456452 -28.01121121 60.76456452 -31 63 C-31.226875 62.05125 -31.45375 61.1025 -31.6875 60.125 C-32.67465269 56.88953094 -32.67465269 56.88953094 -35.2109375 55.73046875 C-41.18327075 54.16628623 -47.88755166 56.94377583 -53.25 59.625 C-55.87728443 60.93864221 -57.33674497 61.24224638 -60.1875 61.5 C-64.19614139 62.02572346 -64.49826272 62.26000203 -67 65 C-69.6875 65.1875 -69.6875 65.1875 -72 65 C-72 61 -72 61 -71 58 C-70.92913795 56.18876593 -70.91583677 54.37499027 -70.9375 52.5625 C-70.94523437 51.50289063 -70.95296875 50.44328125 -70.9609375 49.3515625 C-70.98027344 47.69253906 -70.98027344 47.69253906 -71 46 C-71.02549476 43.81254936 -71.04653255 41.62504093 -71.0625 39.4375 C-71.07410156 38.46683594 -71.08570313 37.49617188 -71.09765625 36.49609375 C-71 34 -71 34 -70 31 C-66.18862732 27.8238561 -63.15607865 25.9202086 -58.375 24.625 C-53.26291033 23.13069687 -51.63814209 20.51037196 -49 16 C-48.01 16.33 -47.02 16.66 -46 17 C-46 16.01 -46 15.02 -46 14 C-45.34 14 -44.68 14 -44 14 C-43.690625 12.7934375 -43.690625 12.7934375 -43.375 11.5625 C-42.92125 10.716875 -42.4675 9.87125 -42 9 C-38.875 8.1875 -38.875 8.1875 -36 8 C-35.505 9.485 -35.505 9.485 -35 11 C-34.01 11 -33.02 11 -32 11 C-32 10.01 -32 9.02 -32 8 C-31.34 7.67 -30.68 7.34 -30 7 C-29.67 6.01 -29.34 5.02 -29 4 C-23.55555556 0.66666667 -23.55555556 0.66666667 -19.7578125 1.48046875 C-17.79881286 2.22293658 -15.89331202 3.10316799 -14 4 C-14.66 6.64 -15.32 9.28 -16 12 C-15.0925 12.825 -14.185 13.65 -13.25 14.5 C-12.48429687 15.19609375 -12.48429687 15.19609375 -11.703125 15.90625 C-9.77639485 17.36024492 -9.77639485 17.36024492 -6 17 C-2.89298641 8.53746617 -2.89298641 8.53746617 0 0 Z " fill="#F1F2F2" transform="translate(447,298)"/>
<path d="M0 0 C5.61997129 1.94144463 8.46013789 5.1512551 11.25 10.3125 C11.4975 10.869375 11.745 11.42625 12 12 C12.33 10.68 12.66 9.36 13 8 C19.88750192 33.06907397 25.71231221 58.07468749 26.5625 84.125 C26.6049585 85.3929541 26.64741699 86.6609082 26.69116211 87.96728516 C27.22678763 105.3054478 27.08867085 122.65598206 27 140 C25.28899317 136.77813011 24.35488381 133.66565575 23.50488281 130.11352539 C18.24540743 108.20432523 9.44177313 86.69678367 -1.26953125 66.890625 C-2.10327271 65.34193726 -2.10327271 65.34193726 -2.95385742 63.76196289 C-4.04398775 61.75640976 -5.15150812 59.76018339 -6.27856445 57.77514648 C-9.23659932 52.36347739 -10.78199787 49.18130512 -9 43 C-8.58906325 41.36119789 -8.18038965 39.72182736 -7.7734375 38.08203125 C-7.07377582 35.42450945 -6.36353095 32.77043663 -5.640625 30.11914062 C-5.41632813 29.26126953 -5.19203125 28.40339844 -4.9609375 27.51953125 C-4.75259277 26.74714111 -4.54424805 25.97475098 -4.32958984 25.17895508 C-3.74255689 21.298015 -4.71686149 19.39173959 -6.99609375 16.23828125 C-7.80175781 15.27277344 -8.60742188 14.30726563 -9.4375 13.3125 C-10.24058594 12.33925781 -11.04367188 11.36601562 -11.87109375 10.36328125 C-13.77527265 7.96018554 -13.77527265 7.96018554 -16 7 C-12.48155407 -0.84884093 -8.09731005 -0.84685334 0 0 Z " fill="#F0705B" transform="translate(180,208)"/>
<path d="M0 0 C3.6440116 1.67237247 6.81190484 3.87710801 10.125 6.125 C15.40536155 9.6186679 20.7219364 12.32287837 26.5625 14.75 C38.00315284 19.53606465 49.34473359 25.97920292 59.11083984 33.66015625 C61.60433567 35.42861129 63.23120017 35.30666315 66.25 35.1875 C67.14203125 35.16042969 68.0340625 35.13335937 68.953125 35.10546875 C69.96632812 35.05326172 69.96632812 35.05326172 71 35 C71.96345444 33.12762629 72.92053102 31.2519701 73.875 29.375 C74.40867187 28.33085937 74.94234375 27.28671875 75.4921875 26.2109375 C76.91454291 23.18198375 78.0122001 20.19356666 79 17 C82 19 82 19 82.60009766 21.25561523 C82.70370605 22.18059814 82.80731445 23.10558105 82.9140625 24.05859375 C83.03523438 25.08533203 83.15640625 26.11207031 83.28125 27.16992188 C83.3946875 28.24822266 83.508125 29.32652344 83.625 30.4375 C83.74617188 31.48099609 83.86734375 32.52449219 83.9921875 33.59960938 C84.76774909 40.3899883 85.40940815 47.19127128 86 54 C84.30858674 51.46288012 83.56692609 49.87342633 82.6875 47.0625 C81.27317222 43.15694511 79.5839326 41.23995787 76 39 C71.37167105 37.45722368 66.82026238 37.21890639 62 38 C59.54971634 39.7919985 58.60112429 41.34986324 57 44 C57.55945313 44.226875 58.11890625 44.45375 58.6953125 44.6875 C63.67187054 47.52160763 67.12773343 52.12740493 70 57 C70.50475226 60.68469152 69.22059574 63.53873922 68 67 C67.32186944 69.48471277 66.68642617 71.9785878 66.05126953 74.47460938 C65.06860918 78.32578653 64.03242571 82.16189832 63 86 C59.41789823 81.8028738 56.72481067 77.29627345 53.9375 72.5625 C43.03138868 54.44863235 29.61129027 40.06465478 12.77441406 27.35546875 C10.96120429 25.97036409 9.17786192 24.55318404 7.3984375 23.125 C6.81698975 22.66303223 6.23554199 22.20106445 5.63647461 21.72509766 C4.03515994 20.4526059 2.43738436 19.17566417 0.83984375 17.8984375 C-1.92483964 16.05024475 -3.7300473 15.34799497 -7 15 C-5.45454854 9.52067211 -2.84456788 4.88570819 0 0 Z " fill="#F1F1F0" transform="translate(107,171)"/>
<path d="M0 0 C0 0.66 0 1.32 0 2 C-0.99 2.763125 -1.98 3.52625 -3 4.3125 C-4.6800787 5.5764714 -4.6800787 5.5764714 -6 7 C-6.16687448 9.58354218 -6.16687448 9.58354218 -6 12 C-7.625 13.875 -7.625 13.875 -10 15 C-13.25 14.6875 -13.25 14.6875 -16 14 C-16 14.99 -16 15.98 -16 17 C-14.35 17.33 -12.7 17.66 -11 18 C-11.66 18.66 -12.32 19.32 -13 20 C-13.33 20 -13.66 20 -14 20 C-14.58007812 20.68255859 -14.58007812 20.68255859 -15.171875 21.37890625 C-17.66088951 23.58604519 -20.05164752 24.07096962 -23.25 24.9375 C-27.11745016 26.04923096 -30.53618007 27.0869134 -33.9375 29.25 C-37.29719061 31.16982321 -39.19757909 31.37096789 -43 31 C-43.2475 31.969375 -43.495 32.93875 -43.75 33.9375 C-44.1625 34.948125 -44.575 35.95875 -45 37 C-46.9375 37.5625 -46.9375 37.5625 -49 38 C-50.01866229 39.65532623 -51.01810813 41.32260138 -52 43 C-53.875 44.375 -53.875 44.375 -56 45 C-57.67420876 44.70688927 -59.34275418 44.37739261 -61 44 C-63.48063781 33.62642369 -63.48063781 33.62642369 -62 28 C-61.360625 27.896875 -60.72125 27.79375 -60.0625 27.6875 C-59.381875 27.460625 -58.70125 27.23375 -58 27 C-57.67 26.01 -57.34 25.02 -57 24 C-56.34 24 -55.68 24 -55 24 C-54.67 23.34 -54.34 22.68 -54 22 C-54.66 21.67 -55.32 21.34 -56 21 C-55.34 20.01 -54.68 19.02 -54 18 C-55.32 18.33 -56.64 18.66 -58 19 C-58 18.34 -58 17.68 -58 17 C-57.34 16.67 -56.68 16.34 -56 16 C-56.66 14.02 -57.32 12.04 -58 10 C-62.29 9.67 -66.58 9.34 -71 9 C-71 8.34 -71 7.68 -71 7 C-73.31 7.33 -75.62 7.66 -78 8 C-74.85587597 5.33958736 -71.88662457 4.26737758 -68 3 C-67.34 2.34 -66.68 1.68 -66 1 C-57.21393776 -0.9312647 -48.33225169 -1.20646052 -39.37280273 -1.01416016 C-37.58221742 -0.97849531 -35.79087858 -0.98511146 -34 -1 C-33.67 -1.33 -33.34 -1.66 -33 -2 C-22.09843937 -3.96172042 -10.2765861 -4.48432848 0 0 Z " fill="#EFF1F2" transform="translate(292,84)"/>
<path d="M0 0 C0.969375 0.845625 1.93875 1.69125 2.9375 2.5625 C4.29003014 3.71026462 5.64430523 4.85597505 7 6 C7.65226562 6.56460938 8.30453125 7.12921875 8.9765625 7.7109375 C23.29926057 19.56605463 38.36288726 23.53614346 56.6875 23.1875 C58.08266768 23.17241097 59.47785134 23.15873009 60.87304688 23.14648438 C64.24911584 23.11143868 67.62434276 23.06230508 71 23 C71.63172647 34.84838099 71.01997898 43.87574433 64.59765625 54.26953125 C62.60941276 56.42305659 61.65641735 56.70694185 58.75 56.875 C51.22937494 56.61111842 45.62232869 51.5179184 39.77148438 47.26123047 C37.3368903 45.52789075 34.8142406 43.97079591 32.25 42.4375 C31.49203125 41.98246094 30.7340625 41.52742188 29.953125 41.05859375 C27.88789623 39.8659437 27.88789623 39.8659437 25 39 C24.07943454 37.36343918 23.16487538 35.72320385 22.28125 34.06640625 C20.84097059 31.7435166 19.18611691 29.92635922 17.3125 27.9375 C12.03473882 22.18622006 8.01041259 15.66777943 4 9 C3.61908203 8.36739258 3.23816406 7.73478516 2.84570312 7.08300781 C0 2.24931349 0 2.24931349 0 0 Z " fill="#F6B64D" transform="translate(115,151)"/>
<path d="M0 0 C6.51085917 3.70225325 8.95650937 9.99849457 11.9375 16.5625 C12.34871094 17.4184375 12.75992188 18.274375 13.18359375 19.15625 C16.19639467 25.76239155 17.30847508 31.32192723 15.53125 38.44140625 C14.75 40.23177083 13.96875 42.02213542 13.1875 43.8125 C9.7225 44.3075 9.7225 44.3075 6.1875 44.8125 C5.795625 44.0803125 5.40375 43.348125 5 42.59375 C-1.36485988 31.07115884 -8.7461166 20.24937044 -16.13012695 9.36108398 C-17.76514395 6.88423846 -19.3054757 4.36883845 -20.8125 1.8125 C-13.48685484 -1.38414516 -7.73954487 -2.41067791 0 0 Z " fill="#E4E6E6" transform="translate(260.8125,357.1875)"/>
<path d="M0 0 C5.03139912 0.48424264 7.73716744 4.46016295 10.74829102 8.09545898 C12.54488492 10.4523954 13.90253346 12.39510454 14.37890625 15.3515625 C13.84397466 18.03095437 12.94514379 20.43274091 12 23 C11.31627793 25.48293484 10.68225379 27.97613981 10.04907227 30.47241211 C9.07002929 34.3251111 8.03257532 38.16134212 7 42 C3.29239204 37.65405387 0.42610119 32.9459795 -2.5 28.0625 C-5.56767031 22.96782683 -8.65350707 17.91713466 -12 13 C-11.319375 12.34 -10.63875 11.68 -9.9375 11 C-6.43274653 7.50531766 -3.22778212 3.74869221 0 0 Z " fill="#CDD4DD" transform="translate(163,215)"/>
<path d="M0 0 C1.0592918 3.17787541 1.11458939 5.42588943 1.09765625 8.76171875 C1.09443359 9.87998047 1.09121094 10.99824219 1.08789062 12.15039062 C1.07951172 13.31763672 1.07113281 14.48488281 1.0625 15.6875 C1.05798828 16.86634766 1.05347656 18.04519531 1.04882812 19.25976562 C1.03703285 22.17319867 1.01909727 25.08660567 1 28 C-2.96 28 -6.92 28 -11 28 C-10.67 26.35 -10.34 24.7 -10 23 C-9.8599637 21.23547604 -9.7559922 19.46780956 -9.68359375 17.69921875 C-9.64169922 16.72275391 -9.59980469 15.74628906 -9.55664062 14.74023438 C-9.51732422 13.73283203 -9.47800781 12.72542969 -9.4375 11.6875 C-9.37272461 10.14739258 -9.37272461 10.14739258 -9.30664062 8.57617188 C-9.20093175 6.05090431 -9.09883532 3.52554438 -9 1 C-5.94152152 0.45627049 -3.11227195 0 0 0 Z " fill="#E0E3E3" transform="translate(217,432)"/>
<path d="M0 0 C7.51634122 7.10664547 8.4987418 14.87488806 9.1171875 24.83984375 C9 28 9 28 7 30 C1.99954996 22.83268827 0.68211318 17.76747457 0.375 9.1875 C0.33632813 8.30384766 0.29765625 7.42019531 0.2578125 6.50976562 C0.16399216 4.34017028 0.08092674 2.17011453 0 0 Z " fill="#55B9E2" transform="translate(291,307)"/>
<path d="M0 0 C2.4375 0.75 2.4375 0.75 5 2 C5.8125 4.125 5.8125 4.125 6 6 C6.66 6 7.32 6 8 6 C7.34 7.65 6.68 9.3 6 11 C4.35 11 2.7 11 1 11 C0.67 11.99 0.34 12.98 0 14 C-1.32 14 -2.64 14 -4 14 C-3.52188823 12.22888156 -3.0424722 10.45811517 -2.5625 8.6875 C-2.29566406 7.70136719 -2.02882812 6.71523437 -1.75390625 5.69921875 C-1.21920575 3.78482474 -0.62855462 1.88566385 0 0 Z " fill="#EFF0ED" transform="translate(203,142)"/>
<path d="M0 0 C1.9453125 0.34765625 1.9453125 0.34765625 4 1 C4.28875 1.804375 4.5775 2.60875 4.875 3.4375 C5.79704705 6.33663628 5.79704705 6.33663628 9.125 7.3125 C10.07375 7.539375 11.0225 7.76625 12 8 C13.36884358 12.51718381 12.47075246 15.58774263 11 20 C7.89280655 16.27528861 5.92713702 12.0786964 3.8125 7.75 C3.44447266 7.00492187 3.07644531 6.25984375 2.69726562 5.4921875 C1.7945242 3.66325683 0.8967638 1.83186904 0 0 Z " fill="#59BDE6" transform="translate(279,283)"/>
<path d="M0 0 C1.49739583 1.26953125 2.99479167 2.5390625 4.4921875 3.80859375 C6.00594079 5.0878152 6.00594079 5.0878152 8 6 C7.25 7.9375 7.25 7.9375 6 10 C3.875 10.75 3.875 10.75 2 11 C2.33 9.35 2.66 7.7 3 6 C2.01 5.67 1.02 5.34 0 5 C-0.75 3 -0.75 3 -1 1 C-0.67 0.67 -0.34 0.34 0 0 Z " fill="#69C6EC" transform="translate(383,112)"/>
<path d="M0 0 C2.29946417 3.44919626 2.80769035 6.1381022 3.625 10.1875 C3.88539063 11.45980469 4.14578125 12.73210937 4.4140625 14.04296875 C4.60742188 15.01878906 4.80078125 15.99460938 5 17 C1.09375 14.265625 1.09375 14.265625 0.25 11.875 C-0.0946855 7.91111674 -0.07795762 3.97583841 0 0 Z " fill="#CA9A96" transform="translate(192,216)"/>
<path d="M0 0 C2.46800047 1.15173355 4.04783565 2.04783565 6 4 C5.625 7.125 5.625 7.125 5 10 C4.34 10 3.68 10 3 10 C3 8.02 3 6.04 3 4 C1.68 3.34 0.36 2.68 -1 2 C-0.67 1.34 -0.34 0.68 0 0 Z " fill="#C4E3F0" transform="translate(300,189)"/>
<path d="M0 0 C2.4294516 3.6441774 2.16179575 5.71241272 2 10 C1.01 10.33 0.02 10.66 -1 11 C-1.02688151 9.35425434 -1.04634123 7.70838587 -1.0625 6.0625 C-1.07410156 5.14597656 -1.08570313 4.22945313 -1.09765625 3.28515625 C-1 1 -1 1 0 0 Z " fill="#6FC8EC" transform="translate(496,264)"/>
<path d="M0 0 C2.5 0.3125 2.5 0.3125 5 1 C5.33 1.66 5.66 2.32 6 3 C2.01803543 4.05404945 -0.98195309 3.84098656 -5 3 C-4.360625 2.690625 -3.72125 2.38125 -3.0625 2.0625 C-1.06389179 1.1654837 -1.06389179 1.1654837 0 0 Z " fill="#6DC7EC" transform="translate(315,136)"/>
<path d="M0 0 C1.65 1.65 3.3 3.3 5 5 C4.34 5.66 3.68 6.32 3 7 C0 5 0 5 -0.75 2.9375 C-0.8325 2.298125 -0.915 1.65875 -1 1 C-0.67 0.67 -0.34 0.34 0 0 Z " fill="#83CEED" transform="translate(383,112)"/>
<path d="M0 0 C3.96 0.33 7.92 0.66 12 1 C12 1.33 12 1.66 12 2 C9.69 2 7.38 2 5 2 C4.67 2.99 4.34 3.98 4 5 C4 4.01 4 3.02 4 2 C2.68 1.34 1.36 0.68 0 0 Z " fill="#96D5EE" transform="translate(324,118)"/>
</svg>
