<svg width="21" height="20" viewBox="0 0 21 20" fill="none" xmlns="http://www.w3.org/2000/svg">
<path d="M8.83366 9.67124L4.72948 14.4892C4.17875 15.1357 3.19367 15.175 2.59314 14.5745C1.99261 13.974 2.03195 12.9889 2.67846 12.4382L7.49641 8.33398" stroke="white" stroke-width="1.5" stroke-linejoin="round"/>
<path d="M15.5003 8.37334L11.3733 12.5003M8.79398 1.66699L4.66699 5.79398M8.27813 2.18284L5.18289 5.27808C5.18289 5.27808 6.73051 7.34157 8.27813 8.88919C9.82575 10.4368 11.8892 11.9844 11.8892 11.9844L14.9845 8.88919C14.9845 8.88919 13.4369 6.8257 11.8892 5.27808C10.3416 3.73046 8.27813 2.18284 8.27813 2.18284Z" stroke="white" stroke-width="1.5" stroke-linecap="round" stroke-linejoin="round"/>
<path d="M9.9373 17.9698C9.73614 18.3318 9.8666 18.7884 10.2287 18.9896C10.5908 19.1908 11.0474 19.0603 11.2485 18.6982L9.9373 17.9698ZM11.1536 17.3247L11.8093 17.6889V17.6889L11.1536 17.3247ZM16.4188 18.6982C16.6199 19.0603 17.0765 19.1908 17.4386 18.9896C17.8007 18.7884 17.9312 18.3318 17.73 17.9698L16.4188 18.6982ZM16.5137 17.3247L17.1693 16.9605L17.1693 16.9605L16.5137 17.3247ZM15.8235 16.2984L16.3139 15.7309L16.3139 15.7309L15.8235 16.2984ZM15.1623 15.9306L14.9334 16.6448L15.1623 15.9306ZM11.8438 16.2984L11.3535 15.7309L11.3535 15.7309L11.8438 16.2984ZM12.505 15.9306L12.2761 15.2164L12.2761 15.2164L12.505 15.9306ZM9.66699 17.584C9.25278 17.584 8.91699 17.9198 8.91699 18.334C8.91699 18.7482 9.25278 19.084 9.66699 19.084L9.66699 17.584ZM18.0003 19.084C18.4145 19.084 18.7503 18.7482 18.7503 18.334C18.7503 17.9198 18.4145 17.584 18.0003 17.584V19.084ZM11.2485 18.6982L11.8093 17.6889L10.498 16.9605L9.9373 17.9698L11.2485 18.6982ZM17.73 17.9698L17.1693 16.9605L15.8581 17.6889L16.4188 18.6982L17.73 17.9698ZM17.1693 16.9605C16.8896 16.4569 16.6688 16.0375 16.3139 15.7309L15.3332 16.8659C15.4398 16.958 15.5253 17.0899 15.8581 17.6889L17.1693 16.9605ZM13.8337 16.584C14.5698 16.584 14.7705 16.5926 14.9334 16.6448L15.3912 15.2164C14.9514 15.0754 14.4672 15.084 13.8337 15.084V16.584ZM16.3139 15.7309C16.0456 15.4991 15.7305 15.3251 15.3912 15.2164L14.9334 16.6448C15.0878 16.6943 15.2234 16.771 15.3332 16.8659L16.3139 15.7309ZM11.8093 17.6889C12.1421 17.0899 12.2275 16.958 12.3342 16.8659L11.3535 15.7309C10.9985 16.0375 10.7778 16.4569 10.498 16.9605L11.8093 17.6889ZM13.8337 15.084C13.2001 15.084 12.716 15.0754 12.2761 15.2164L12.734 16.6448C12.8968 16.5926 13.0975 16.584 13.8337 16.584V15.084ZM12.3342 16.8659C12.4439 16.771 12.5795 16.6943 12.734 16.6448L12.2761 15.2164C11.9368 15.3251 11.6217 15.4991 11.3535 15.7309L12.3342 16.8659ZM9.66699 19.084L18.0003 19.084V17.584L9.66699 17.584L9.66699 19.084Z" fill="white"/>
<path d="M17.167 9.69762L18.8337 8.33398M17.167 12.4249L18.8337 13.334" stroke="white" stroke-width="1.5" stroke-linecap="round" stroke-linejoin="round"/>
</svg>
