<svg width="99" height="48" viewBox="0 0 99 48" fill="none" xmlns="http://www.w3.org/2000/svg">
<g clip-path="url(#clip0_101_42)">
<path d="M80.9723 0L85.2666 7.61764H85.471L89.8167 0H97.7412L89.9193 13.088L98.0479 26.176H89.9193L85.471 18.405H85.2666L80.8188 26.176H72.7411L80.7679 13.088L72.9968 0H80.9723Z" fill="white"/>
<path d="M50.9648 26.176V0H69.8301V5.72599H58.0713V10.225H68.8585V15.951H58.0713V20.45H69.7788V26.176H50.9648Z" fill="white"/>
<path d="M26.077 26.176V22.2394L38.4493 5.72599H26.1282V0H47.4985V3.93662L35.1262 20.45H47.4472V26.176H26.077Z" fill="white"/>
<path d="M15.4909 0H22.5972V16.769C22.5972 18.7629 22.1201 20.4883 21.1658 21.9454C20.22 23.394 18.8992 24.5144 17.2036 25.3069C15.5079 26.0908 13.5396 26.4828 11.2986 26.4828C9.04059 26.4828 7.06378 26.0908 5.36814 25.3069C3.67248 24.5144 2.35175 23.394 1.40594 21.9454C0.468645 20.4883 0 18.7629 0 16.769V0H7.10636V16.1555C7.10636 16.965 7.28532 17.6892 7.64317 18.3283C8.00106 18.9588 8.49526 19.4531 9.12583 19.8109C9.7649 20.1688 10.4892 20.3477 11.2986 20.3477C12.1166 20.3477 12.8409 20.1688 13.4714 19.8109C14.102 19.4531 14.5962 18.9588 14.9541 18.3283C15.312 17.6892 15.4909 16.965 15.4909 16.1555V0Z" fill="white"/>
<path d="M82.0088 33.3009H85.2107L89.4993 43.7681H89.6685L93.9567 33.3009H97.159V47.7459H94.6481V37.822H94.5141L90.5218 47.7037H88.6456L84.6538 37.8009H84.5197V47.7459H82.0088V33.3009Z" fill="white"/>
<path d="M79.175 33.3008V47.7458H76.5586V33.3008H79.175Z" fill="white"/>
<path d="M63.3331 47.7459V46.1168L70.7392 35.4944H63.2909V33.3009H73.9837V34.9302L66.5847 45.5524H74.0259V47.7459H63.3331Z" fill="white"/>
<path d="M60.7672 33.3008V47.7458H58.1504V33.3008H60.7672Z" fill="white"/>
<path d="M44.4041 35.4944V33.3009H55.9291V35.4944H51.4643V47.7459H48.8686V35.4944H44.4041Z" fill="white"/>
<path d="M37.6376 40.5236C37.6376 42.0799 37.346 43.4132 36.763 44.523C36.1846 45.6278 35.3946 46.474 34.393 47.062C33.3962 47.6496 32.2653 47.9438 31.0004 47.9438C29.7356 47.9438 28.6023 47.6496 27.6008 47.062C26.6039 46.4694 25.8139 45.6208 25.2308 44.5159C24.6525 43.4061 24.3633 42.0754 24.3633 40.5236C24.3633 38.9672 24.6525 37.6364 25.2308 36.5314C25.8139 35.4217 26.6039 34.5729 27.6008 33.9852C28.6023 33.3974 29.7356 33.1035 31.0004 33.1035C32.2653 33.1035 33.3962 33.3974 34.393 33.9852C35.3946 34.5729 36.1846 35.4217 36.763 36.5314C37.346 37.6364 37.6376 38.9672 37.6376 40.5236ZM35.0067 40.5236C35.0067 39.428 34.8351 38.504 34.4918 37.7517C34.1533 36.9946 33.683 36.4233 33.0812 36.0377C32.4793 35.6474 31.7857 35.4522 31.0004 35.4522C30.2151 35.4522 29.5216 35.6474 28.9197 36.0377C28.3178 36.4233 27.8453 36.9946 27.502 37.7517C27.1634 38.504 26.9942 39.428 26.9942 40.5236C26.9942 41.6194 27.1634 42.5454 27.502 43.3027C27.8453 44.055 28.3178 44.6264 28.9197 45.0166C29.5216 45.4023 30.2151 45.5951 31.0004 45.5951C31.7857 45.5951 32.4793 45.4023 33.0812 45.0166C33.683 44.6264 34.1533 44.055 34.4918 43.3027C34.8351 42.5454 35.0067 41.6194 35.0067 40.5236Z" fill="white"/>
<path fill-rule="evenodd" clip-rule="evenodd" d="M31.0004 33.6035C29.8165 33.6035 28.7722 33.8775 27.8543 34.4162C26.9444 34.9527 26.2171 35.7295 25.6736 36.7637C25.141 37.7815 24.8633 39.0285 24.8633 40.5236C24.8633 42.0134 25.1407 43.2606 25.6737 44.2838C26.2169 45.3126 26.9443 46.0898 27.8549 46.6314C28.7728 47.1696 29.8169 47.4438 31.0004 47.4438C32.1845 47.4438 33.2262 47.1694 34.1391 46.6313L34.1399 46.6308C35.0549 46.0937 35.7817 45.3193 36.32 44.2911L36.3203 44.2904C36.8577 43.2676 37.1376 42.0181 37.1376 40.5236C37.1376 39.0289 36.8577 37.7823 36.3208 36.7648L36.3196 36.7625C35.7811 35.7293 35.0543 34.9529 34.14 34.4164L34.1391 34.4159C33.2263 33.8776 32.1846 33.6035 31.0004 33.6035ZM27.3477 33.554C28.4327 32.9172 29.6548 32.6035 31.0004 32.6035C32.3459 32.6035 33.5658 32.9171 34.6466 33.5542C35.7349 34.193 36.5877 35.1137 37.2058 36.2992C37.8346 37.4914 38.1376 38.906 38.1376 40.5236C38.1376 42.1417 37.8344 43.5587 37.2056 44.7555C36.5873 45.9363 35.7346 46.854 34.6469 47.4927M27.3477 33.554L27.3468 33.5545ZM27.3468 33.5545C26.2632 34.1934 25.4108 35.114 24.7882 36.2989ZM28.6488 35.6174C29.339 35.1702 30.1286 34.9522 31.0004 34.9522C31.8723 34.9522 32.6618 35.1702 33.352 35.6174C34.0474 36.0632 34.5759 36.7157 34.9475 37.5458C35.3279 38.3805 35.5067 39.3793 35.5067 40.5236C35.5067 41.6688 35.3277 42.6695 34.9475 43.5085C34.5756 44.3346 34.0471 44.9863 33.3532 45.4362L33.3509 45.4376L33.3509 45.4376C32.6606 45.8799 31.8715 46.0951 31.0004 46.0951C30.1293 46.0951 29.3402 45.8799 28.65 45.4376L28.6477 45.4362C27.9542 44.9866 27.4237 44.3356 27.0471 43.5103L27.0455 43.5068L27.0455 43.5068C26.6706 42.6682 26.4942 41.6682 26.4942 40.5236C26.4942 39.3793 26.6706 38.3808 27.046 37.5465L27.0466 37.5452C27.4229 36.7153 27.9536 36.0631 28.6488 35.6174ZM28.9197 36.0377L28.9197 36.0377L28.9197 36.0377C29.705 36.1244 30.3022 35.9522 31.0004 35.9522L29.1918 36.4572L29.1894 36.4587C28.2676 37.2741 28.6815 36.7841 29.1894 36.4587C27.4942 39.477 27.6562 38.6278 27.9576 37.9576C27.6559 42.4212 27.4942 41.5696 27.4942 40.5236C28.6812 44.2658 28.2673 43.7747 27.9577 43.0969C30.3015 45.0951 29.7038 44.9249 29.1906 44.5963C32.297 44.9249 31.6993 45.0951 31.0004 45.0951C33.7309 43.7752 33.3194 44.266 32.8103 44.5964L34.0359 43.0975C34.5067 41.5697 34.3425 42.421 34.0364 43.0963C34.3424 38.6288 34.5067 39.4774 34.5067 40.5236L34.0369 37.9592L34.0354 37.9558C33.3188 36.7837 33.7301 37.2731 34.0354 37.9558L32.8114 36.4587L32.8091 36.4572C31.6987 35.9522 32.2958 36.1244 32.8091 36.4572M24.7882 36.2989L24.7879 36.2996ZM24.7879 36.2996C24.1639 37.4917 23.8633 38.906 23.8633 40.5236ZM23.8633 40.5236C23.8633 42.1369 24.164 43.5508 24.7874 44.747ZM27.3453 47.4918C26.2632 46.8486 25.4112 45.929 24.7886 44.7493L24.7874 44.747M31.0004 48.4438C29.6547 48.4438 28.4327 48.1298 27.3477 47.4933L27.3453 47.4918M31.0004 48.4438C32.3459 48.4438 33.5656 48.1299 34.6462 47.4932Z" fill="white"/>
<path d="M35.4027 35.3322H26.7131V45.677H35.4027V35.3322Z" fill="white"/>
<path d="M12.0646 47.7459V33.3009H14.6814V39.938H14.8578L20.4934 33.3009H23.6885L18.1023 39.7828L23.7379 47.7459H20.5921L16.2825 41.5531L14.6814 43.4433V47.7459H12.0646Z" fill="white"/>
<path d="M0 47.7459V33.3009H9.39497V35.4944H2.61677V39.4161H8.9083V41.6098H2.61677V45.5524H9.45141V47.7459H0Z" fill="white"/>
<path d="M28.4604 38.7414H28.4777H33.6083C33.7781 38.7414 33.9327 38.7413 34.0565 38.7594C34.1926 38.7793 34.3375 38.8269 34.4455 38.9588C34.5524 39.0893 34.5723 39.2404 34.5684 39.3778C34.5647 39.5047 34.5387 39.6601 34.5096 39.8331L34.0891 42.3418C34.0227 42.7382 33.9689 43.0585 33.895 43.3092C33.8182 43.5695 33.7113 43.7855 33.519 43.9523C33.3259 44.1194 33.0986 44.1923 32.8332 44.2262C32.5792 44.2585 32.2618 44.2585 31.8718 44.2585H30.1969C29.8069 44.2585 29.4895 44.2585 29.2355 44.2262C28.9701 44.1923 28.7428 44.1194 28.5497 43.9523C28.3574 43.7855 28.2505 43.5695 28.1737 43.3092C28.0997 43.0585 28.046 42.7382 27.9796 42.3418L27.5618 39.8496L27.559 39.8331C27.53 39.6601 27.504 39.5047 27.5003 39.3778C27.4964 39.2404 27.5163 39.0893 27.6231 38.9588C27.7312 38.8269 27.8761 38.7793 28.0122 38.7594C28.136 38.7413 28.2906 38.7414 28.4604 38.7414Z" fill="#194185"/>
<path fill-rule="evenodd" clip-rule="evenodd" d="M31.0348 37.5344C30.273 37.5344 29.6555 38.1519 29.6555 38.9137V39.0861C29.6555 39.2765 29.5011 39.4309 29.3106 39.4309C29.1202 39.4309 28.9658 39.2765 28.9658 39.0861V38.9137C28.9658 37.771 29.8921 36.8447 31.0348 36.8447C32.1774 36.8447 33.1038 37.771 33.1038 38.9137V39.0861C33.1038 39.2765 32.9494 39.4309 32.7589 39.4309C32.5685 39.4309 32.4141 39.2765 32.4141 39.0861V38.9137C32.4141 38.1519 31.7965 37.5344 31.0348 37.5344Z" fill="#194185"/>
</g>
<defs>
<clipPath id="clip0_101_42">
<rect width="98.069" height="48" fill="white"/>
</clipPath>
</defs>
</svg>
